<svg xmlns="http://www.w3.org/2000/svg" xmlns:xlink="http://www.w3.org/1999/xlink" width="36" height="36" viewBox="0 0 36 36">
  <defs>
    <clipPath id="clip-path">
      <rect id="Rectangle_38" data-name="Rectangle 38" width="36" height="36" transform="translate(84 442)" fill="#009167"/>
    </clipPath>
  </defs>
  <g id="Mask_Group_11" data-name="Mask Group 11" transform="translate(-84 -442)" clip-path="url(#clip-path)">
    <path id="icons8-business" d="M18,1.92c-3.319,0-5.974,1.848-6.413,4.32H2.16A2.164,2.164,0,0,0,0,8.4V20.64a.721.721,0,0,0,.72.72H14.4a2.164,2.164,0,0,1,2.16-2.16h2.88a2.164,2.164,0,0,1,2.16,2.16H35.28a.721.721,0,0,0,.72-.72V8.4a2.164,2.164,0,0,0-2.16-2.16H24.412C23.974,3.768,21.319,1.92,18,1.92Zm0,1.44c2.483,0,4.5,1.215,4.95,2.88h-9.9C13.5,4.575,15.517,3.36,18,3.36ZM16.56,20.64a.721.721,0,0,0-.72.72V22.8a.721.721,0,0,0,.72.72h2.88a.721.721,0,0,0,.72-.72V21.36a.721.721,0,0,0-.72-.72ZM0,22.665V32.88a2.164,2.164,0,0,0,2.16,2.16H33.84A2.164,2.164,0,0,0,36,32.88V22.665a2.111,2.111,0,0,1-.72.135H21.6a2.164,2.164,0,0,1-2.16,2.16H16.56A2.164,2.164,0,0,1,14.4,22.8H.72A2.111,2.111,0,0,1,0,22.665Z" transform="translate(84 441.52)" fill="#009167"/>
  </g>
</svg>
