<svg xmlns="http://www.w3.org/2000/svg" xmlns:xlink="http://www.w3.org/1999/xlink" width="36" height="36" viewBox="0 0 36 36">
  <defs>
    <clipPath id="clip-path">
      <rect id="Rectangle_53" data-name="Rectangle 53" width="36" height="36" transform="translate(84 871)" fill="#009167"/>
    </clipPath>
  </defs>
  <g id="Mask_Group_12" data-name="Mask Group 12" transform="translate(-84 -871)" clip-path="url(#clip-path)">
    <path id="icons8-workers" d="M23.138.72a.859.859,0,0,0-.809.72h-.022v4.61a9.64,9.64,0,0,1,.63,2.384c1.02.717,1.526,1.982,1.529,3.8a29.9,29.9,0,0,0,6.656-.742l.54-.135v-.562c0-1.849-.644-2.417-1.327-2.653-.115-2.2-1.287-4.958-3.71-5.756V7.2a.72.72,0,1,1-1.439,0V1.439h-.022a.859.859,0,0,0-.809-.72Zm-9.354.72a.866.866,0,0,0-.832.877v5.6a.72.72,0,1,1-1.439,0V3.036C8.806,3.78,7.305,6.594,7.2,9.354c-.739.264-1.439.863-1.439,2.878v.562l.54.135a36.348,36.348,0,0,0,8.095.742,36.318,36.318,0,0,0,8.095-.742l.54-.135v-.562c0-2.029-.7-2.622-1.439-2.878-.11-2.757-1.613-5.574-4.317-6.319V7.915a.72.72,0,1,1-1.439,0v-5.6A.866.866,0,0,0,15,1.439Zm7.083.967a4.617,4.617,0,0,0-.9.427,7.17,7.17,0,0,1,.9.877Zm8.747,10.838a37.424,37.424,0,0,1-5.149.427v.247l-1.079.27-.562.135c-.006,0-.014,0-.022,0a4.091,4.091,0,0,1,.09,1.484,4.661,4.661,0,0,1-1.462,3.171,9.29,9.29,0,0,1-1.394,2.968c-.006.545-.014,1.026.022,1.574a9.6,9.6,0,0,0,2.7,1.349c2.277.9,5.484,2.173,6.836,5.352h6.364l-.045-.765c-.225-3.741-3.185-5.017-5.554-6.049-1.315-.573-2.555-1.121-2.923-1.934-.053-.672-.051-1.195-.045-1.8v-.247a6.3,6.3,0,0,0,1.3-2.766A2.62,2.62,0,0,0,29.816,14.5,2.151,2.151,0,0,0,29.614,13.244ZM7.4,14.593a2.536,2.536,0,0,0-.09,1.034c.191,1.585.807,2.237,1.327,2.5a7.226,7.226,0,0,0,1.6,3.305v.337a21.689,21.689,0,0,1-.067,2.181c-.441,1.012-1.906,1.6-3.6,2.271C3.755,27.323.261,28.689,0,33.054l-.045.765H28.827l-.045-.765c-.261-4.362-3.741-5.731-6.543-6.836-1.684-.666-3.159-1.259-3.6-2.271a21.426,21.426,0,0,1-.045-2.181v-.337a7.292,7.292,0,0,0,1.552-3.305,2.94,2.94,0,0,0,1.327-2.5,2.473,2.473,0,0,0-.09-1.012,44.63,44.63,0,0,1-6.993.495A44.242,44.242,0,0,1,7.4,14.593Z" transform="translate(84.045 871.73)" fill="#009167"/>
  </g>
</svg>
