<svg xmlns="http://www.w3.org/2000/svg" xmlns:xlink="http://www.w3.org/1999/xlink" width="1440" height="900" viewBox="0 0 1440 900">
  <defs>
    <clipPath id="clip-path">
      <rect id="Rectangle_29" data-name="Rectangle 29" width="1440" height="900" fill="#fff"/>
    </clipPath>
  </defs>
  <g id="pattern" opacity="0.046" clip-path="url(#clip-path)">
    <g id="Group_29" data-name="Group 29" transform="translate(-9335.999 -442)">
      <g id="Group_23" data-name="Group 23">
        <path id="Path_34" data-name="Path 34" d="M-631.406,243.614l-.773-.416-.77.416-45.228,24.319V380.464l45.228,24.318.77.416.773-.416,45.229-24.318V267.933Zm0,1.731,43.685,23.489v54.083l-43.685-23.488Zm-45.227,23.489,43.684-23.489V299.43l-43.684,23.488Zm43.684,134.218-43.684-23.491V325.478l43.684,23.488Zm45.227-23.491-43.685,23.491V348.966l43.685-23.488Zm-44.457-31.909L-675.8,324.2l43.617-23.453,43.62,23.453Z" transform="translate(10081.177 198.802)" fill="#fff"/>
        <path id="Path_50" data-name="Path 50" d="M-631.406,243.614l-.773-.416-.77.416-45.228,24.319V380.464l45.228,24.318.77.416.773-.416,45.229-24.318V267.933Zm0,1.731,43.685,23.489v54.083l-43.685-23.488Zm-45.227,23.489,43.684-23.489V299.43l-43.684,23.488Zm43.684,134.218-43.684-23.491V325.478l43.684,23.488Zm45.227-23.491-43.685,23.491V348.966l43.685-23.488Zm-44.457-31.909L-675.8,324.2l43.617-23.453,43.62,23.453Z" transform="translate(9991.177 198.802)" fill="#fff"/>
        <path id="Path_42" data-name="Path 42" d="M-631.406,243.614l-.773-.416-.77.416-45.228,24.319V380.464l45.228,24.318.77.416.773-.416,45.229-24.318V267.933Zm0,1.731,43.685,23.489v54.083l-43.685-23.488Zm-45.227,23.489,43.684-23.489V299.43l-43.684,23.488Zm43.684,134.218-43.684-23.491V325.478l43.684,23.488Zm45.227-23.491-43.685,23.491V348.966l43.685-23.488Zm-44.457-31.909L-675.8,324.2l43.617-23.453,43.62,23.453Z" transform="translate(10801.177 198.802)" fill="#fff"/>
        <path id="Path_41" data-name="Path 41" d="M-631.406,243.614l-.773-.416-.77.416-45.228,24.319V380.464l45.228,24.318.77.416.773-.416,45.229-24.318V267.933Zm0,1.731,43.685,23.489v54.083l-43.685-23.488Zm-45.227,23.489,43.684-23.489V299.43l-43.684,23.488Zm43.684,134.218-43.684-23.491V325.478l43.684,23.488Zm45.227-23.491-43.685,23.491V348.966l43.685-23.488Zm-44.457-31.909L-675.8,324.2l43.617-23.453,43.62,23.453Z" transform="translate(10441.177 198.802)" fill="#fff"/>
        <path id="Path_45" data-name="Path 45" d="M-631.406,243.614l-.773-.416-.77.416-45.228,24.319V380.464l45.228,24.318.77.416.773-.416,45.229-24.318V267.933Zm0,1.731,43.685,23.489v54.083l-43.685-23.488Zm-45.227,23.489,43.684-23.489V299.43l-43.684,23.488Zm43.684,134.218-43.684-23.491V325.478l43.684,23.488Zm45.227-23.491-43.685,23.491V348.966l43.685-23.488Zm-44.457-31.909L-675.8,324.2l43.617-23.453,43.62,23.453Z" transform="translate(11161.177 198.802)" fill="#fff"/>
        <path id="Path_36" data-name="Path 36" d="M-631.406,243.614l-.773-.416-.77.416-45.228,24.319V380.464l45.228,24.318.77.416.773-.416,45.229-24.318V267.933Zm0,1.731,43.685,23.489v54.083l-43.685-23.488Zm-45.227,23.489,43.684-23.489V299.43l-43.684,23.488Zm43.684,134.218-43.684-23.491V325.478l43.684,23.488Zm45.227-23.491-43.685,23.491V348.966l43.685-23.488Zm-44.457-31.909L-675.8,324.2l43.617-23.453,43.62,23.453Z" transform="translate(10261.177 198.802)" fill="#fff"/>
        <path id="Path_44" data-name="Path 44" d="M-631.406,243.614l-.773-.416-.77.416-45.228,24.319V380.464l45.228,24.318.77.416.773-.416,45.229-24.318V267.933Zm0,1.731,43.685,23.489v54.083l-43.685-23.488Zm-45.227,23.489,43.684-23.489V299.43l-43.684,23.488Zm43.684,134.218-43.684-23.491V325.478l43.684,23.488Zm45.227-23.491-43.685,23.491V348.966l43.685-23.488Zm-44.457-31.909L-675.8,324.2l43.617-23.453,43.62,23.453Z" transform="translate(10981.177 198.802)" fill="#fff"/>
        <path id="Path_39" data-name="Path 39" d="M-631.406,243.614l-.773-.416-.77.416-45.228,24.319V380.464l45.228,24.318.77.416.773-.416,45.229-24.318V267.933Zm0,1.731,43.685,23.489v54.083l-43.685-23.488Zm-45.227,23.489,43.684-23.489V299.43l-43.684,23.488Zm43.684,134.218-43.684-23.491V325.478l43.684,23.488Zm45.227-23.491-43.685,23.491V348.966l43.685-23.488Zm-44.457-31.909L-675.8,324.2l43.617-23.453,43.62,23.453Z" transform="translate(10621.177 198.802)" fill="#fff"/>
        <path id="Path_47" data-name="Path 47" d="M-631.406,243.614l-.773-.416-.77.416-45.228,24.319V380.464l45.228,24.318.77.416.773-.416,45.229-24.318V267.933Zm0,1.731,43.685,23.489v54.083l-43.685-23.488Zm-45.227,23.489,43.684-23.489V299.43l-43.684,23.488Zm43.684,134.218-43.684-23.491V325.478l43.684,23.488Zm45.227-23.491-43.685,23.491V348.966l43.685-23.488Zm-44.457-31.909L-675.8,324.2l43.617-23.453,43.62,23.453Z" transform="translate(11341.177 198.802)" fill="#fff"/>
        <path id="Path_35" data-name="Path 35" d="M-631.406,243.614l-.773-.416-.77.416-45.228,24.319V380.464l45.228,24.318.77.416.773-.416,45.229-24.318V267.933Zm0,1.731,43.685,23.489v54.083l-43.685-23.488Zm-45.227,23.489,43.684-23.489V299.43l-43.684,23.488Zm43.684,134.218-43.684-23.491V325.478l43.684,23.488Zm45.227-23.491-43.685,23.491V348.966l43.685-23.488Zm-44.457-31.909L-675.8,324.2l43.617-23.453,43.62,23.453Z" transform="translate(10171.177 198.802)" fill="#fff"/>
        <path id="Path_43" data-name="Path 43" d="M-631.406,243.614l-.773-.416-.77.416-45.228,24.319V380.464l45.228,24.318.77.416.773-.416,45.229-24.318V267.933Zm0,1.731,43.685,23.489v54.083l-43.685-23.488Zm-45.227,23.489,43.684-23.489V299.43l-43.684,23.488Zm43.684,134.218-43.684-23.491V325.478l43.684,23.488Zm45.227-23.491-43.685,23.491V348.966l43.685-23.488Zm-44.457-31.909L-675.8,324.2l43.617-23.453,43.62,23.453Z" transform="translate(10891.177 198.802)" fill="#fff"/>
        <path id="Path_40" data-name="Path 40" d="M-631.406,243.614l-.773-.416-.77.416-45.228,24.319V380.464l45.228,24.318.77.416.773-.416,45.229-24.318V267.933Zm0,1.731,43.685,23.489v54.083l-43.685-23.488Zm-45.227,23.489,43.684-23.489V299.43l-43.684,23.488Zm43.684,134.218-43.684-23.491V325.478l43.684,23.488Zm45.227-23.491-43.685,23.491V348.966l43.685-23.488Zm-44.457-31.909L-675.8,324.2l43.617-23.453,43.62,23.453Z" transform="translate(10531.177 198.802)" fill="#fff"/>
        <path id="Path_48" data-name="Path 48" d="M-631.406,243.614l-.773-.416-.77.416-45.228,24.319V380.464l45.228,24.318.77.416.773-.416,45.229-24.318V267.933Zm0,1.731,43.685,23.489v54.083l-43.685-23.488Zm-45.227,23.489,43.684-23.489V299.43l-43.684,23.488Zm43.684,134.218-43.684-23.491V325.478l43.684,23.488Zm45.227-23.491-43.685,23.491V348.966l43.685-23.488Zm-44.457-31.909L-675.8,324.2l43.617-23.453,43.62,23.453Z" transform="translate(11251.177 198.802)" fill="#fff"/>
        <path id="Path_37" data-name="Path 37" d="M-631.406,243.614l-.773-.416-.77.416-45.228,24.319V380.464l45.228,24.318.77.416.773-.416,45.229-24.318V267.933Zm0,1.731,43.685,23.489v54.083l-43.685-23.488Zm-45.227,23.489,43.684-23.489V299.43l-43.684,23.488Zm43.684,134.218-43.684-23.491V325.478l43.684,23.488Zm45.227-23.491-43.685,23.491V348.966l43.685-23.488Zm-44.457-31.909L-675.8,324.2l43.617-23.453,43.62,23.453Z" transform="translate(10351.177 198.802)" fill="#fff"/>
        <path id="Path_46" data-name="Path 46" d="M-631.406,243.614l-.773-.416-.77.416-45.228,24.319V380.464l45.228,24.318.77.416.773-.416,45.229-24.318V267.933Zm0,1.731,43.685,23.489v54.083l-43.685-23.488Zm-45.227,23.489,43.684-23.489V299.43l-43.684,23.488Zm43.684,134.218-43.684-23.491V325.478l43.684,23.488Zm45.227-23.491-43.685,23.491V348.966l43.685-23.488Zm-44.457-31.909L-675.8,324.2l43.617-23.453,43.62,23.453Z" transform="translate(11071.177 198.802)" fill="#fff"/>
        <path id="Path_38" data-name="Path 38" d="M-631.406,243.614l-.773-.416-.77.416-45.228,24.319V380.464l45.228,24.318.77.416.773-.416,45.229-24.318V267.933Zm0,1.731,43.685,23.489v54.083l-43.685-23.488Zm-45.227,23.489,43.684-23.489V299.43l-43.684,23.488Zm43.684,134.218-43.684-23.491V325.478l43.684,23.488Zm45.227-23.491-43.685,23.491V348.966l43.685-23.488Zm-44.457-31.909L-675.8,324.2l43.617-23.453,43.62,23.453Z" transform="translate(10711.177 198.802)" fill="#fff"/>
        <path id="Path_49" data-name="Path 49" d="M-631.406,243.614l-.773-.416-.77.416-45.228,24.319V380.464l45.228,24.318.77.416.773-.416,45.229-24.318V267.933Zm0,1.731,43.685,23.489v54.083l-43.685-23.488Zm-45.227,23.489,43.684-23.489V299.43l-43.684,23.488Zm43.684,134.218-43.684-23.491V325.478l43.684,23.488Zm45.227-23.491-43.685,23.491V348.966l43.685-23.488Zm-44.457-31.909L-675.8,324.2l43.617-23.453,43.62,23.453Z" transform="translate(11431.177 198.802)" fill="#fff"/>
      </g>
      <g id="Group_25" data-name="Group 25" transform="translate(0 272)">
        <path id="Path_34-2" data-name="Path 34" d="M-631.406,243.614l-.773-.416-.77.416-45.228,24.319V380.464l45.228,24.318.77.416.773-.416,45.229-24.318V267.933Zm0,1.731,43.685,23.489v54.083l-43.685-23.488Zm-45.227,23.489,43.684-23.489V299.43l-43.684,23.488Zm43.684,134.218-43.684-23.491V325.478l43.684,23.488Zm45.227-23.491-43.685,23.491V348.966l43.685-23.488Zm-44.457-31.909L-675.8,324.2l43.617-23.453,43.62,23.453Z" transform="translate(10081.177 198.802)" fill="#fff"/>
        <path id="Path_52" data-name="Path 52" d="M-631.406,243.614l-.773-.416-.77.416-45.228,24.319V380.464l45.228,24.318.77.416.773-.416,45.229-24.318V267.933Zm0,1.731,43.685,23.489v54.083l-43.685-23.488Zm-45.227,23.489,43.684-23.489V299.43l-43.684,23.488Zm43.684,134.218-43.684-23.491V325.478l43.684,23.488Zm45.227-23.491-43.685,23.491V348.966l43.685-23.488Zm-44.457-31.909L-675.8,324.2l43.617-23.453,43.62,23.453Z" transform="translate(9991.177 198.802)" fill="#fff"/>
        <path id="Path_42-2" data-name="Path 42" d="M-631.406,243.614l-.773-.416-.77.416-45.228,24.319V380.464l45.228,24.318.77.416.773-.416,45.229-24.318V267.933Zm0,1.731,43.685,23.489v54.083l-43.685-23.488Zm-45.227,23.489,43.684-23.489V299.43l-43.684,23.488Zm43.684,134.218-43.684-23.491V325.478l43.684,23.488Zm45.227-23.491-43.685,23.491V348.966l43.685-23.488Zm-44.457-31.909L-675.8,324.2l43.617-23.453,43.62,23.453Z" transform="translate(10801.177 198.802)" fill="#fff"/>
        <path id="Path_41-2" data-name="Path 41" d="M-631.406,243.614l-.773-.416-.77.416-45.228,24.319V380.464l45.228,24.318.77.416.773-.416,45.229-24.318V267.933Zm0,1.731,43.685,23.489v54.083l-43.685-23.488Zm-45.227,23.489,43.684-23.489V299.43l-43.684,23.488Zm43.684,134.218-43.684-23.491V325.478l43.684,23.488Zm45.227-23.491-43.685,23.491V348.966l43.685-23.488Zm-44.457-31.909L-675.8,324.2l43.617-23.453,43.62,23.453Z" transform="translate(10441.177 198.802)" fill="#fff"/>
        <path id="Path_45-2" data-name="Path 45" d="M-631.406,243.614l-.773-.416-.77.416-45.228,24.319V380.464l45.228,24.318.77.416.773-.416,45.229-24.318V267.933Zm0,1.731,43.685,23.489v54.083l-43.685-23.488Zm-45.227,23.489,43.684-23.489V299.43l-43.684,23.488Zm43.684,134.218-43.684-23.491V325.478l43.684,23.488Zm45.227-23.491-43.685,23.491V348.966l43.685-23.488Zm-44.457-31.909L-675.8,324.2l43.617-23.453,43.62,23.453Z" transform="translate(11161.177 198.802)" fill="#fff"/>
        <path id="Path_36-2" data-name="Path 36" d="M-631.406,243.614l-.773-.416-.77.416-45.228,24.319V380.464l45.228,24.318.77.416.773-.416,45.229-24.318V267.933Zm0,1.731,43.685,23.489v54.083l-43.685-23.488Zm-45.227,23.489,43.684-23.489V299.43l-43.684,23.488Zm43.684,134.218-43.684-23.491V325.478l43.684,23.488Zm45.227-23.491-43.685,23.491V348.966l43.685-23.488Zm-44.457-31.909L-675.8,324.2l43.617-23.453,43.62,23.453Z" transform="translate(10261.177 198.802)" fill="#fff"/>
        <path id="Path_44-2" data-name="Path 44" d="M-631.406,243.614l-.773-.416-.77.416-45.228,24.319V380.464l45.228,24.318.77.416.773-.416,45.229-24.318V267.933Zm0,1.731,43.685,23.489v54.083l-43.685-23.488Zm-45.227,23.489,43.684-23.489V299.43l-43.684,23.488Zm43.684,134.218-43.684-23.491V325.478l43.684,23.488Zm45.227-23.491-43.685,23.491V348.966l43.685-23.488Zm-44.457-31.909L-675.8,324.2l43.617-23.453,43.62,23.453Z" transform="translate(10981.177 198.802)" fill="#fff"/>
        <path id="Path_39-2" data-name="Path 39" d="M-631.406,243.614l-.773-.416-.77.416-45.228,24.319V380.464l45.228,24.318.77.416.773-.416,45.229-24.318V267.933Zm0,1.731,43.685,23.489v54.083l-43.685-23.488Zm-45.227,23.489,43.684-23.489V299.43l-43.684,23.488Zm43.684,134.218-43.684-23.491V325.478l43.684,23.488Zm45.227-23.491-43.685,23.491V348.966l43.685-23.488Zm-44.457-31.909L-675.8,324.2l43.617-23.453,43.62,23.453Z" transform="translate(10621.177 198.802)" fill="#fff"/>
        <path id="Path_47-2" data-name="Path 47" d="M-631.406,243.614l-.773-.416-.77.416-45.228,24.319V380.464l45.228,24.318.77.416.773-.416,45.229-24.318V267.933Zm0,1.731,43.685,23.489v54.083l-43.685-23.488Zm-45.227,23.489,43.684-23.489V299.43l-43.684,23.488Zm43.684,134.218-43.684-23.491V325.478l43.684,23.488Zm45.227-23.491-43.685,23.491V348.966l43.685-23.488Zm-44.457-31.909L-675.8,324.2l43.617-23.453,43.62,23.453Z" transform="translate(11341.177 198.802)" fill="#fff"/>
        <path id="Path_35-2" data-name="Path 35" d="M-631.406,243.614l-.773-.416-.77.416-45.228,24.319V380.464l45.228,24.318.77.416.773-.416,45.229-24.318V267.933Zm0,1.731,43.685,23.489v54.083l-43.685-23.488Zm-45.227,23.489,43.684-23.489V299.43l-43.684,23.488Zm43.684,134.218-43.684-23.491V325.478l43.684,23.488Zm45.227-23.491-43.685,23.491V348.966l43.685-23.488Zm-44.457-31.909L-675.8,324.2l43.617-23.453,43.62,23.453Z" transform="translate(10171.177 198.802)" fill="#fff"/>
        <path id="Path_43-2" data-name="Path 43" d="M-631.406,243.614l-.773-.416-.77.416-45.228,24.319V380.464l45.228,24.318.77.416.773-.416,45.229-24.318V267.933Zm0,1.731,43.685,23.489v54.083l-43.685-23.488Zm-45.227,23.489,43.684-23.489V299.43l-43.684,23.488Zm43.684,134.218-43.684-23.491V325.478l43.684,23.488Zm45.227-23.491-43.685,23.491V348.966l43.685-23.488Zm-44.457-31.909L-675.8,324.2l43.617-23.453,43.62,23.453Z" transform="translate(10891.177 198.802)" fill="#fff"/>
        <path id="Path_40-2" data-name="Path 40" d="M-631.406,243.614l-.773-.416-.77.416-45.228,24.319V380.464l45.228,24.318.77.416.773-.416,45.229-24.318V267.933Zm0,1.731,43.685,23.489v54.083l-43.685-23.488Zm-45.227,23.489,43.684-23.489V299.43l-43.684,23.488Zm43.684,134.218-43.684-23.491V325.478l43.684,23.488Zm45.227-23.491-43.685,23.491V348.966l43.685-23.488Zm-44.457-31.909L-675.8,324.2l43.617-23.453,43.62,23.453Z" transform="translate(10531.177 198.802)" fill="#fff"/>
        <path id="Path_48-2" data-name="Path 48" d="M-631.406,243.614l-.773-.416-.77.416-45.228,24.319V380.464l45.228,24.318.77.416.773-.416,45.229-24.318V267.933Zm0,1.731,43.685,23.489v54.083l-43.685-23.488Zm-45.227,23.489,43.684-23.489V299.43l-43.684,23.488Zm43.684,134.218-43.684-23.491V325.478l43.684,23.488Zm45.227-23.491-43.685,23.491V348.966l43.685-23.488Zm-44.457-31.909L-675.8,324.2l43.617-23.453,43.62,23.453Z" transform="translate(11251.177 198.802)" fill="#fff"/>
        <path id="Path_37-2" data-name="Path 37" d="M-631.406,243.614l-.773-.416-.77.416-45.228,24.319V380.464l45.228,24.318.77.416.773-.416,45.229-24.318V267.933Zm0,1.731,43.685,23.489v54.083l-43.685-23.488Zm-45.227,23.489,43.684-23.489V299.43l-43.684,23.488Zm43.684,134.218-43.684-23.491V325.478l43.684,23.488Zm45.227-23.491-43.685,23.491V348.966l43.685-23.488Zm-44.457-31.909L-675.8,324.2l43.617-23.453,43.62,23.453Z" transform="translate(10351.177 198.802)" fill="#fff"/>
        <path id="Path_46-2" data-name="Path 46" d="M-631.406,243.614l-.773-.416-.77.416-45.228,24.319V380.464l45.228,24.318.77.416.773-.416,45.229-24.318V267.933Zm0,1.731,43.685,23.489v54.083l-43.685-23.488Zm-45.227,23.489,43.684-23.489V299.43l-43.684,23.488Zm43.684,134.218-43.684-23.491V325.478l43.684,23.488Zm45.227-23.491-43.685,23.491V348.966l43.685-23.488Zm-44.457-31.909L-675.8,324.2l43.617-23.453,43.62,23.453Z" transform="translate(11071.177 198.802)" fill="#fff"/>
        <path id="Path_38-2" data-name="Path 38" d="M-631.406,243.614l-.773-.416-.77.416-45.228,24.319V380.464l45.228,24.318.77.416.773-.416,45.229-24.318V267.933Zm0,1.731,43.685,23.489v54.083l-43.685-23.488Zm-45.227,23.489,43.684-23.489V299.43l-43.684,23.488Zm43.684,134.218-43.684-23.491V325.478l43.684,23.488Zm45.227-23.491-43.685,23.491V348.966l43.685-23.488Zm-44.457-31.909L-675.8,324.2l43.617-23.453,43.62,23.453Z" transform="translate(10711.177 198.802)" fill="#fff"/>
        <path id="Path_49-2" data-name="Path 49" d="M-631.406,243.614l-.773-.416-.77.416-45.228,24.319V380.464l45.228,24.318.77.416.773-.416,45.229-24.318V267.933Zm0,1.731,43.685,23.489v54.083l-43.685-23.488Zm-45.227,23.489,43.684-23.489V299.43l-43.684,23.488Zm43.684,134.218-43.684-23.491V325.478l43.684,23.488Zm45.227-23.491-43.685,23.491V348.966l43.685-23.488Zm-44.457-31.909L-675.8,324.2l43.617-23.453,43.62,23.453Z" transform="translate(11431.177 198.802)" fill="#fff"/>
      </g>
      <g id="Group_28" data-name="Group 28" transform="translate(0 544)">
        <path id="Path_34-3" data-name="Path 34" d="M-631.406,243.614l-.773-.416-.77.416-45.228,24.319V380.464l45.228,24.318.77.416.773-.416,45.229-24.318V267.933Zm0,1.731,43.685,23.489v54.083l-43.685-23.488Zm-45.227,23.489,43.684-23.489V299.43l-43.684,23.488Zm43.684,134.218-43.684-23.491V325.478l43.684,23.488Zm45.227-23.491-43.685,23.491V348.966l43.685-23.488Zm-44.457-31.909L-675.8,324.2l43.617-23.453,43.62,23.453Z" transform="translate(10081.177 198.802)" fill="#fff"/>
        <path id="Path_52-2" data-name="Path 52" d="M-631.406,243.614l-.773-.416-.77.416-45.228,24.319V380.464l45.228,24.318.77.416.773-.416,45.229-24.318V267.933Zm0,1.731,43.685,23.489v54.083l-43.685-23.488Zm-45.227,23.489,43.684-23.489V299.43l-43.684,23.488Zm43.684,134.218-43.684-23.491V325.478l43.684,23.488Zm45.227-23.491-43.685,23.491V348.966l43.685-23.488Zm-44.457-31.909L-675.8,324.2l43.617-23.453,43.62,23.453Z" transform="translate(9991.177 198.802)" fill="#fff"/>
        <path id="Path_42-3" data-name="Path 42" d="M-631.406,243.614l-.773-.416-.77.416-45.228,24.319V380.464l45.228,24.318.77.416.773-.416,45.229-24.318V267.933Zm0,1.731,43.685,23.489v54.083l-43.685-23.488Zm-45.227,23.489,43.684-23.489V299.43l-43.684,23.488Zm43.684,134.218-43.684-23.491V325.478l43.684,23.488Zm45.227-23.491-43.685,23.491V348.966l43.685-23.488Zm-44.457-31.909L-675.8,324.2l43.617-23.453,43.62,23.453Z" transform="translate(10801.177 198.802)" fill="#fff"/>
        <path id="Path_41-3" data-name="Path 41" d="M-631.406,243.614l-.773-.416-.77.416-45.228,24.319V380.464l45.228,24.318.77.416.773-.416,45.229-24.318V267.933Zm0,1.731,43.685,23.489v54.083l-43.685-23.488Zm-45.227,23.489,43.684-23.489V299.43l-43.684,23.488Zm43.684,134.218-43.684-23.491V325.478l43.684,23.488Zm45.227-23.491-43.685,23.491V348.966l43.685-23.488Zm-44.457-31.909L-675.8,324.2l43.617-23.453,43.62,23.453Z" transform="translate(10441.177 198.802)" fill="#fff"/>
        <path id="Path_45-3" data-name="Path 45" d="M-631.406,243.614l-.773-.416-.77.416-45.228,24.319V380.464l45.228,24.318.77.416.773-.416,45.229-24.318V267.933Zm0,1.731,43.685,23.489v54.083l-43.685-23.488Zm-45.227,23.489,43.684-23.489V299.43l-43.684,23.488Zm43.684,134.218-43.684-23.491V325.478l43.684,23.488Zm45.227-23.491-43.685,23.491V348.966l43.685-23.488Zm-44.457-31.909L-675.8,324.2l43.617-23.453,43.62,23.453Z" transform="translate(11161.177 198.802)" fill="#fff"/>
        <path id="Path_36-3" data-name="Path 36" d="M-631.406,243.614l-.773-.416-.77.416-45.228,24.319V380.464l45.228,24.318.77.416.773-.416,45.229-24.318V267.933Zm0,1.731,43.685,23.489v54.083l-43.685-23.488Zm-45.227,23.489,43.684-23.489V299.43l-43.684,23.488Zm43.684,134.218-43.684-23.491V325.478l43.684,23.488Zm45.227-23.491-43.685,23.491V348.966l43.685-23.488Zm-44.457-31.909L-675.8,324.2l43.617-23.453,43.62,23.453Z" transform="translate(10261.177 198.802)" fill="#fff"/>
        <path id="Path_44-3" data-name="Path 44" d="M-631.406,243.614l-.773-.416-.77.416-45.228,24.319V380.464l45.228,24.318.77.416.773-.416,45.229-24.318V267.933Zm0,1.731,43.685,23.489v54.083l-43.685-23.488Zm-45.227,23.489,43.684-23.489V299.43l-43.684,23.488Zm43.684,134.218-43.684-23.491V325.478l43.684,23.488Zm45.227-23.491-43.685,23.491V348.966l43.685-23.488Zm-44.457-31.909L-675.8,324.2l43.617-23.453,43.62,23.453Z" transform="translate(10981.177 198.802)" fill="#fff"/>
        <path id="Path_39-3" data-name="Path 39" d="M-631.406,243.614l-.773-.416-.77.416-45.228,24.319V380.464l45.228,24.318.77.416.773-.416,45.229-24.318V267.933Zm0,1.731,43.685,23.489v54.083l-43.685-23.488Zm-45.227,23.489,43.684-23.489V299.43l-43.684,23.488Zm43.684,134.218-43.684-23.491V325.478l43.684,23.488Zm45.227-23.491-43.685,23.491V348.966l43.685-23.488Zm-44.457-31.909L-675.8,324.2l43.617-23.453,43.62,23.453Z" transform="translate(10621.177 198.802)" fill="#fff"/>
        <path id="Path_47-3" data-name="Path 47" d="M-631.406,243.614l-.773-.416-.77.416-45.228,24.319V380.464l45.228,24.318.77.416.773-.416,45.229-24.318V267.933Zm0,1.731,43.685,23.489v54.083l-43.685-23.488Zm-45.227,23.489,43.684-23.489V299.43l-43.684,23.488Zm43.684,134.218-43.684-23.491V325.478l43.684,23.488Zm45.227-23.491-43.685,23.491V348.966l43.685-23.488Zm-44.457-31.909L-675.8,324.2l43.617-23.453,43.62,23.453Z" transform="translate(11341.177 198.802)" fill="#fff"/>
        <path id="Path_35-3" data-name="Path 35" d="M-631.406,243.614l-.773-.416-.77.416-45.228,24.319V380.464l45.228,24.318.77.416.773-.416,45.229-24.318V267.933Zm0,1.731,43.685,23.489v54.083l-43.685-23.488Zm-45.227,23.489,43.684-23.489V299.43l-43.684,23.488Zm43.684,134.218-43.684-23.491V325.478l43.684,23.488Zm45.227-23.491-43.685,23.491V348.966l43.685-23.488Zm-44.457-31.909L-675.8,324.2l43.617-23.453,43.62,23.453Z" transform="translate(10171.177 198.802)" fill="#fff"/>
        <path id="Path_43-3" data-name="Path 43" d="M-631.406,243.614l-.773-.416-.77.416-45.228,24.319V380.464l45.228,24.318.77.416.773-.416,45.229-24.318V267.933Zm0,1.731,43.685,23.489v54.083l-43.685-23.488Zm-45.227,23.489,43.684-23.489V299.43l-43.684,23.488Zm43.684,134.218-43.684-23.491V325.478l43.684,23.488Zm45.227-23.491-43.685,23.491V348.966l43.685-23.488Zm-44.457-31.909L-675.8,324.2l43.617-23.453,43.62,23.453Z" transform="translate(10891.177 198.802)" fill="#fff"/>
        <path id="Path_40-3" data-name="Path 40" d="M-631.406,243.614l-.773-.416-.77.416-45.228,24.319V380.464l45.228,24.318.77.416.773-.416,45.229-24.318V267.933Zm0,1.731,43.685,23.489v54.083l-43.685-23.488Zm-45.227,23.489,43.684-23.489V299.43l-43.684,23.488Zm43.684,134.218-43.684-23.491V325.478l43.684,23.488Zm45.227-23.491-43.685,23.491V348.966l43.685-23.488Zm-44.457-31.909L-675.8,324.2l43.617-23.453,43.62,23.453Z" transform="translate(10531.177 198.802)" fill="#fff"/>
        <path id="Path_48-3" data-name="Path 48" d="M-631.406,243.614l-.773-.416-.77.416-45.228,24.319V380.464l45.228,24.318.77.416.773-.416,45.229-24.318V267.933Zm0,1.731,43.685,23.489v54.083l-43.685-23.488Zm-45.227,23.489,43.684-23.489V299.43l-43.684,23.488Zm43.684,134.218-43.684-23.491V325.478l43.684,23.488Zm45.227-23.491-43.685,23.491V348.966l43.685-23.488Zm-44.457-31.909L-675.8,324.2l43.617-23.453,43.62,23.453Z" transform="translate(11251.177 198.802)" fill="#fff"/>
        <path id="Path_37-3" data-name="Path 37" d="M-631.406,243.614l-.773-.416-.77.416-45.228,24.319V380.464l45.228,24.318.77.416.773-.416,45.229-24.318V267.933Zm0,1.731,43.685,23.489v54.083l-43.685-23.488Zm-45.227,23.489,43.684-23.489V299.43l-43.684,23.488Zm43.684,134.218-43.684-23.491V325.478l43.684,23.488Zm45.227-23.491-43.685,23.491V348.966l43.685-23.488Zm-44.457-31.909L-675.8,324.2l43.617-23.453,43.62,23.453Z" transform="translate(10351.177 198.802)" fill="#fff"/>
        <path id="Path_46-3" data-name="Path 46" d="M-631.406,243.614l-.773-.416-.77.416-45.228,24.319V380.464l45.228,24.318.77.416.773-.416,45.229-24.318V267.933Zm0,1.731,43.685,23.489v54.083l-43.685-23.488Zm-45.227,23.489,43.684-23.489V299.43l-43.684,23.488Zm43.684,134.218-43.684-23.491V325.478l43.684,23.488Zm45.227-23.491-43.685,23.491V348.966l43.685-23.488Zm-44.457-31.909L-675.8,324.2l43.617-23.453,43.62,23.453Z" transform="translate(11071.177 198.802)" fill="#fff"/>
        <path id="Path_38-3" data-name="Path 38" d="M-631.406,243.614l-.773-.416-.77.416-45.228,24.319V380.464l45.228,24.318.77.416.773-.416,45.229-24.318V267.933Zm0,1.731,43.685,23.489v54.083l-43.685-23.488Zm-45.227,23.489,43.684-23.489V299.43l-43.684,23.488Zm43.684,134.218-43.684-23.491V325.478l43.684,23.488Zm45.227-23.491-43.685,23.491V348.966l43.685-23.488Zm-44.457-31.909L-675.8,324.2l43.617-23.453,43.62,23.453Z" transform="translate(10711.177 198.802)" fill="#fff"/>
        <path id="Path_49-3" data-name="Path 49" d="M-631.406,243.614l-.773-.416-.77.416-45.228,24.319V380.464l45.228,24.318.77.416.773-.416,45.229-24.318V267.933Zm0,1.731,43.685,23.489v54.083l-43.685-23.488Zm-45.227,23.489,43.684-23.489V299.43l-43.684,23.488Zm43.684,134.218-43.684-23.491V325.478l43.684,23.488Zm45.227-23.491-43.685,23.491V348.966l43.685-23.488Zm-44.457-31.909L-675.8,324.2l43.617-23.453,43.62,23.453Z" transform="translate(11431.177 198.802)" fill="#fff"/>
      </g>
      <g id="Group_30" data-name="Group 30" transform="translate(0 816)">
        <path id="Path_34-4" data-name="Path 34" d="M-631.406,243.614l-.773-.416-.77.416-45.228,24.319V380.464l45.228,24.318.77.416.773-.416,45.229-24.318V267.933Zm0,1.731,43.685,23.489v54.083l-43.685-23.488Zm-45.227,23.489,43.684-23.489V299.43l-43.684,23.488Zm43.684,134.218-43.684-23.491V325.478l43.684,23.488Zm45.227-23.491-43.685,23.491V348.966l43.685-23.488Zm-44.457-31.909L-675.8,324.2l43.617-23.453,43.62,23.453Z" transform="translate(10081.177 198.802)" fill="#fff"/>
        <path id="Path_52-3" data-name="Path 52" d="M-631.406,243.614l-.773-.416-.77.416-45.228,24.319V380.464l45.228,24.318.77.416.773-.416,45.229-24.318V267.933Zm0,1.731,43.685,23.489v54.083l-43.685-23.488Zm-45.227,23.489,43.684-23.489V299.43l-43.684,23.488Zm43.684,134.218-43.684-23.491V325.478l43.684,23.488Zm45.227-23.491-43.685,23.491V348.966l43.685-23.488Zm-44.457-31.909L-675.8,324.2l43.617-23.453,43.62,23.453Z" transform="translate(9991.177 198.802)" fill="#fff"/>
        <path id="Path_42-4" data-name="Path 42" d="M-631.406,243.614l-.773-.416-.77.416-45.228,24.319V380.464l45.228,24.318.77.416.773-.416,45.229-24.318V267.933Zm0,1.731,43.685,23.489v54.083l-43.685-23.488Zm-45.227,23.489,43.684-23.489V299.43l-43.684,23.488Zm43.684,134.218-43.684-23.491V325.478l43.684,23.488Zm45.227-23.491-43.685,23.491V348.966l43.685-23.488Zm-44.457-31.909L-675.8,324.2l43.617-23.453,43.62,23.453Z" transform="translate(10801.177 198.802)" fill="#fff"/>
        <path id="Path_41-4" data-name="Path 41" d="M-631.406,243.614l-.773-.416-.77.416-45.228,24.319V380.464l45.228,24.318.77.416.773-.416,45.229-24.318V267.933Zm0,1.731,43.685,23.489v54.083l-43.685-23.488Zm-45.227,23.489,43.684-23.489V299.43l-43.684,23.488Zm43.684,134.218-43.684-23.491V325.478l43.684,23.488Zm45.227-23.491-43.685,23.491V348.966l43.685-23.488Zm-44.457-31.909L-675.8,324.2l43.617-23.453,43.62,23.453Z" transform="translate(10441.177 198.802)" fill="#fff"/>
        <path id="Path_45-4" data-name="Path 45" d="M-631.406,243.614l-.773-.416-.77.416-45.228,24.319V380.464l45.228,24.318.77.416.773-.416,45.229-24.318V267.933Zm0,1.731,43.685,23.489v54.083l-43.685-23.488Zm-45.227,23.489,43.684-23.489V299.43l-43.684,23.488Zm43.684,134.218-43.684-23.491V325.478l43.684,23.488Zm45.227-23.491-43.685,23.491V348.966l43.685-23.488Zm-44.457-31.909L-675.8,324.2l43.617-23.453,43.62,23.453Z" transform="translate(11161.177 198.802)" fill="#fff"/>
        <path id="Path_36-4" data-name="Path 36" d="M-631.406,243.614l-.773-.416-.77.416-45.228,24.319V380.464l45.228,24.318.77.416.773-.416,45.229-24.318V267.933Zm0,1.731,43.685,23.489v54.083l-43.685-23.488Zm-45.227,23.489,43.684-23.489V299.43l-43.684,23.488Zm43.684,134.218-43.684-23.491V325.478l43.684,23.488Zm45.227-23.491-43.685,23.491V348.966l43.685-23.488Zm-44.457-31.909L-675.8,324.2l43.617-23.453,43.62,23.453Z" transform="translate(10261.177 198.802)" fill="#fff"/>
        <path id="Path_44-4" data-name="Path 44" d="M-631.406,243.614l-.773-.416-.77.416-45.228,24.319V380.464l45.228,24.318.77.416.773-.416,45.229-24.318V267.933Zm0,1.731,43.685,23.489v54.083l-43.685-23.488Zm-45.227,23.489,43.684-23.489V299.43l-43.684,23.488Zm43.684,134.218-43.684-23.491V325.478l43.684,23.488Zm45.227-23.491-43.685,23.491V348.966l43.685-23.488Zm-44.457-31.909L-675.8,324.2l43.617-23.453,43.62,23.453Z" transform="translate(10981.177 198.802)" fill="#fff"/>
        <path id="Path_39-4" data-name="Path 39" d="M-631.406,243.614l-.773-.416-.77.416-45.228,24.319V380.464l45.228,24.318.77.416.773-.416,45.229-24.318V267.933Zm0,1.731,43.685,23.489v54.083l-43.685-23.488Zm-45.227,23.489,43.684-23.489V299.43l-43.684,23.488Zm43.684,134.218-43.684-23.491V325.478l43.684,23.488Zm45.227-23.491-43.685,23.491V348.966l43.685-23.488Zm-44.457-31.909L-675.8,324.2l43.617-23.453,43.62,23.453Z" transform="translate(10621.177 198.802)" fill="#fff"/>
        <path id="Path_47-4" data-name="Path 47" d="M-631.406,243.614l-.773-.416-.77.416-45.228,24.319V380.464l45.228,24.318.77.416.773-.416,45.229-24.318V267.933Zm0,1.731,43.685,23.489v54.083l-43.685-23.488Zm-45.227,23.489,43.684-23.489V299.43l-43.684,23.488Zm43.684,134.218-43.684-23.491V325.478l43.684,23.488Zm45.227-23.491-43.685,23.491V348.966l43.685-23.488Zm-44.457-31.909L-675.8,324.2l43.617-23.453,43.62,23.453Z" transform="translate(11341.177 198.802)" fill="#fff"/>
        <path id="Path_35-4" data-name="Path 35" d="M-631.406,243.614l-.773-.416-.77.416-45.228,24.319V380.464l45.228,24.318.77.416.773-.416,45.229-24.318V267.933Zm0,1.731,43.685,23.489v54.083l-43.685-23.488Zm-45.227,23.489,43.684-23.489V299.43l-43.684,23.488Zm43.684,134.218-43.684-23.491V325.478l43.684,23.488Zm45.227-23.491-43.685,23.491V348.966l43.685-23.488Zm-44.457-31.909L-675.8,324.2l43.617-23.453,43.62,23.453Z" transform="translate(10171.177 198.802)" fill="#fff"/>
        <path id="Path_43-4" data-name="Path 43" d="M-631.406,243.614l-.773-.416-.77.416-45.228,24.319V380.464l45.228,24.318.77.416.773-.416,45.229-24.318V267.933Zm0,1.731,43.685,23.489v54.083l-43.685-23.488Zm-45.227,23.489,43.684-23.489V299.43l-43.684,23.488Zm43.684,134.218-43.684-23.491V325.478l43.684,23.488Zm45.227-23.491-43.685,23.491V348.966l43.685-23.488Zm-44.457-31.909L-675.8,324.2l43.617-23.453,43.62,23.453Z" transform="translate(10891.177 198.802)" fill="#fff"/>
        <path id="Path_40-4" data-name="Path 40" d="M-631.406,243.614l-.773-.416-.77.416-45.228,24.319V380.464l45.228,24.318.77.416.773-.416,45.229-24.318V267.933Zm0,1.731,43.685,23.489v54.083l-43.685-23.488Zm-45.227,23.489,43.684-23.489V299.43l-43.684,23.488Zm43.684,134.218-43.684-23.491V325.478l43.684,23.488Zm45.227-23.491-43.685,23.491V348.966l43.685-23.488Zm-44.457-31.909L-675.8,324.2l43.617-23.453,43.62,23.453Z" transform="translate(10531.177 198.802)" fill="#fff"/>
        <path id="Path_48-4" data-name="Path 48" d="M-631.406,243.614l-.773-.416-.77.416-45.228,24.319V380.464l45.228,24.318.77.416.773-.416,45.229-24.318V267.933Zm0,1.731,43.685,23.489v54.083l-43.685-23.488Zm-45.227,23.489,43.684-23.489V299.43l-43.684,23.488Zm43.684,134.218-43.684-23.491V325.478l43.684,23.488Zm45.227-23.491-43.685,23.491V348.966l43.685-23.488Zm-44.457-31.909L-675.8,324.2l43.617-23.453,43.62,23.453Z" transform="translate(11251.177 198.802)" fill="#fff"/>
        <path id="Path_37-4" data-name="Path 37" d="M-631.406,243.614l-.773-.416-.77.416-45.228,24.319V380.464l45.228,24.318.77.416.773-.416,45.229-24.318V267.933Zm0,1.731,43.685,23.489v54.083l-43.685-23.488Zm-45.227,23.489,43.684-23.489V299.43l-43.684,23.488Zm43.684,134.218-43.684-23.491V325.478l43.684,23.488Zm45.227-23.491-43.685,23.491V348.966l43.685-23.488Zm-44.457-31.909L-675.8,324.2l43.617-23.453,43.62,23.453Z" transform="translate(10351.177 198.802)" fill="#fff"/>
        <path id="Path_46-4" data-name="Path 46" d="M-631.406,243.614l-.773-.416-.77.416-45.228,24.319V380.464l45.228,24.318.77.416.773-.416,45.229-24.318V267.933Zm0,1.731,43.685,23.489v54.083l-43.685-23.488Zm-45.227,23.489,43.684-23.489V299.43l-43.684,23.488Zm43.684,134.218-43.684-23.491V325.478l43.684,23.488Zm45.227-23.491-43.685,23.491V348.966l43.685-23.488Zm-44.457-31.909L-675.8,324.2l43.617-23.453,43.62,23.453Z" transform="translate(11071.177 198.802)" fill="#fff"/>
        <path id="Path_38-4" data-name="Path 38" d="M-631.406,243.614l-.773-.416-.77.416-45.228,24.319V380.464l45.228,24.318.77.416.773-.416,45.229-24.318V267.933Zm0,1.731,43.685,23.489v54.083l-43.685-23.488Zm-45.227,23.489,43.684-23.489V299.43l-43.684,23.488Zm43.684,134.218-43.684-23.491V325.478l43.684,23.488Zm45.227-23.491-43.685,23.491V348.966l43.685-23.488Zm-44.457-31.909L-675.8,324.2l43.617-23.453,43.62,23.453Z" transform="translate(10711.177 198.802)" fill="#fff"/>
        <path id="Path_49-4" data-name="Path 49" d="M-631.406,243.614l-.773-.416-.77.416-45.228,24.319V380.464l45.228,24.318.77.416.773-.416,45.229-24.318V267.933Zm0,1.731,43.685,23.489v54.083l-43.685-23.488Zm-45.227,23.489,43.684-23.489V299.43l-43.684,23.488Zm43.684,134.218-43.684-23.491V325.478l43.684,23.488Zm45.227-23.491-43.685,23.491V348.966l43.685-23.488Zm-44.457-31.909L-675.8,324.2l43.617-23.453,43.62,23.453Z" transform="translate(11431.177 198.802)" fill="#fff"/>
      </g>
      <g id="Group_24" data-name="Group 24" transform="translate(-45 136)">
        <path id="Path_34-5" data-name="Path 34" d="M-631.406,243.614l-.773-.416-.77.416-45.228,24.319V380.464l45.228,24.318.77.416.773-.416,45.229-24.318V267.933Zm0,1.731,43.685,23.489v54.083l-43.685-23.488Zm-45.227,23.489,43.684-23.489V299.43l-43.684,23.488Zm43.684,134.218-43.684-23.491V325.478l43.684,23.488Zm45.227-23.491-43.685,23.491V348.966l43.685-23.488Zm-44.457-31.909L-675.8,324.2l43.617-23.453,43.62,23.453Z" transform="translate(10081.177 198.802)" fill="#fff"/>
        <path id="Path_51" data-name="Path 51" d="M-631.406,243.614l-.773-.416-.77.416-45.228,24.319V380.464l45.228,24.318.77.416.773-.416,45.229-24.318V267.933Zm0,1.731,43.685,23.489v54.083l-43.685-23.488Zm-45.227,23.489,43.684-23.489V299.43l-43.684,23.488Zm43.684,134.218-43.684-23.491V325.478l43.684,23.488Zm45.227-23.491-43.685,23.491V348.966l43.685-23.488Zm-44.457-31.909L-675.8,324.2l43.617-23.453,43.62,23.453Z" transform="translate(9991.177 198.802)" fill="#fff"/>
        <path id="Path_42-5" data-name="Path 42" d="M-631.406,243.614l-.773-.416-.77.416-45.228,24.319V380.464l45.228,24.318.77.416.773-.416,45.229-24.318V267.933Zm0,1.731,43.685,23.489v54.083l-43.685-23.488Zm-45.227,23.489,43.684-23.489V299.43l-43.684,23.488Zm43.684,134.218-43.684-23.491V325.478l43.684,23.488Zm45.227-23.491-43.685,23.491V348.966l43.685-23.488Zm-44.457-31.909L-675.8,324.2l43.617-23.453,43.62,23.453Z" transform="translate(10801.177 198.802)" fill="#fff"/>
        <path id="Path_41-5" data-name="Path 41" d="M-631.406,243.614l-.773-.416-.77.416-45.228,24.319V380.464l45.228,24.318.77.416.773-.416,45.229-24.318V267.933Zm0,1.731,43.685,23.489v54.083l-43.685-23.488Zm-45.227,23.489,43.684-23.489V299.43l-43.684,23.488Zm43.684,134.218-43.684-23.491V325.478l43.684,23.488Zm45.227-23.491-43.685,23.491V348.966l43.685-23.488Zm-44.457-31.909L-675.8,324.2l43.617-23.453,43.62,23.453Z" transform="translate(10441.177 198.802)" fill="#fff"/>
        <path id="Path_45-5" data-name="Path 45" d="M-631.406,243.614l-.773-.416-.77.416-45.228,24.319V380.464l45.228,24.318.77.416.773-.416,45.229-24.318V267.933Zm0,1.731,43.685,23.489v54.083l-43.685-23.488Zm-45.227,23.489,43.684-23.489V299.43l-43.684,23.488Zm43.684,134.218-43.684-23.491V325.478l43.684,23.488Zm45.227-23.491-43.685,23.491V348.966l43.685-23.488Zm-44.457-31.909L-675.8,324.2l43.617-23.453,43.62,23.453Z" transform="translate(11161.177 198.802)" fill="#fff"/>
        <path id="Path_36-5" data-name="Path 36" d="M-631.406,243.614l-.773-.416-.77.416-45.228,24.319V380.464l45.228,24.318.77.416.773-.416,45.229-24.318V267.933Zm0,1.731,43.685,23.489v54.083l-43.685-23.488Zm-45.227,23.489,43.684-23.489V299.43l-43.684,23.488Zm43.684,134.218-43.684-23.491V325.478l43.684,23.488Zm45.227-23.491-43.685,23.491V348.966l43.685-23.488Zm-44.457-31.909L-675.8,324.2l43.617-23.453,43.62,23.453Z" transform="translate(10261.177 198.802)" fill="#fff"/>
        <path id="Path_44-5" data-name="Path 44" d="M-631.406,243.614l-.773-.416-.77.416-45.228,24.319V380.464l45.228,24.318.77.416.773-.416,45.229-24.318V267.933Zm0,1.731,43.685,23.489v54.083l-43.685-23.488Zm-45.227,23.489,43.684-23.489V299.43l-43.684,23.488Zm43.684,134.218-43.684-23.491V325.478l43.684,23.488Zm45.227-23.491-43.685,23.491V348.966l43.685-23.488Zm-44.457-31.909L-675.8,324.2l43.617-23.453,43.62,23.453Z" transform="translate(10981.177 198.802)" fill="#fff"/>
        <path id="Path_39-5" data-name="Path 39" d="M-631.406,243.614l-.773-.416-.77.416-45.228,24.319V380.464l45.228,24.318.77.416.773-.416,45.229-24.318V267.933Zm0,1.731,43.685,23.489v54.083l-43.685-23.488Zm-45.227,23.489,43.684-23.489V299.43l-43.684,23.488Zm43.684,134.218-43.684-23.491V325.478l43.684,23.488Zm45.227-23.491-43.685,23.491V348.966l43.685-23.488Zm-44.457-31.909L-675.8,324.2l43.617-23.453,43.62,23.453Z" transform="translate(10621.177 198.802)" fill="#fff"/>
        <path id="Path_47-5" data-name="Path 47" d="M-631.406,243.614l-.773-.416-.77.416-45.228,24.319V380.464l45.228,24.318.77.416.773-.416,45.229-24.318V267.933Zm0,1.731,43.685,23.489v54.083l-43.685-23.488Zm-45.227,23.489,43.684-23.489V299.43l-43.684,23.488Zm43.684,134.218-43.684-23.491V325.478l43.684,23.488Zm45.227-23.491-43.685,23.491V348.966l43.685-23.488Zm-44.457-31.909L-675.8,324.2l43.617-23.453,43.62,23.453Z" transform="translate(11341.177 198.802)" fill="#fff"/>
        <path id="Path_35-5" data-name="Path 35" d="M-631.406,243.614l-.773-.416-.77.416-45.228,24.319V380.464l45.228,24.318.77.416.773-.416,45.229-24.318V267.933Zm0,1.731,43.685,23.489v54.083l-43.685-23.488Zm-45.227,23.489,43.684-23.489V299.43l-43.684,23.488Zm43.684,134.218-43.684-23.491V325.478l43.684,23.488Zm45.227-23.491-43.685,23.491V348.966l43.685-23.488Zm-44.457-31.909L-675.8,324.2l43.617-23.453,43.62,23.453Z" transform="translate(10171.177 198.802)" fill="#fff"/>
        <path id="Path_43-5" data-name="Path 43" d="M-631.406,243.614l-.773-.416-.77.416-45.228,24.319V380.464l45.228,24.318.77.416.773-.416,45.229-24.318V267.933Zm0,1.731,43.685,23.489v54.083l-43.685-23.488Zm-45.227,23.489,43.684-23.489V299.43l-43.684,23.488Zm43.684,134.218-43.684-23.491V325.478l43.684,23.488Zm45.227-23.491-43.685,23.491V348.966l43.685-23.488Zm-44.457-31.909L-675.8,324.2l43.617-23.453,43.62,23.453Z" transform="translate(10891.177 198.802)" fill="#fff"/>
        <path id="Path_40-5" data-name="Path 40" d="M-631.406,243.614l-.773-.416-.77.416-45.228,24.319V380.464l45.228,24.318.77.416.773-.416,45.229-24.318V267.933Zm0,1.731,43.685,23.489v54.083l-43.685-23.488Zm-45.227,23.489,43.684-23.489V299.43l-43.684,23.488Zm43.684,134.218-43.684-23.491V325.478l43.684,23.488Zm45.227-23.491-43.685,23.491V348.966l43.685-23.488Zm-44.457-31.909L-675.8,324.2l43.617-23.453,43.62,23.453Z" transform="translate(10531.177 198.802)" fill="#fff"/>
        <path id="Path_48-5" data-name="Path 48" d="M-631.406,243.614l-.773-.416-.77.416-45.228,24.319V380.464l45.228,24.318.77.416.773-.416,45.229-24.318V267.933Zm0,1.731,43.685,23.489v54.083l-43.685-23.488Zm-45.227,23.489,43.684-23.489V299.43l-43.684,23.488Zm43.684,134.218-43.684-23.491V325.478l43.684,23.488Zm45.227-23.491-43.685,23.491V348.966l43.685-23.488Zm-44.457-31.909L-675.8,324.2l43.617-23.453,43.62,23.453Z" transform="translate(11251.177 198.802)" fill="#fff"/>
        <path id="Path_37-5" data-name="Path 37" d="M-631.406,243.614l-.773-.416-.77.416-45.228,24.319V380.464l45.228,24.318.77.416.773-.416,45.229-24.318V267.933Zm0,1.731,43.685,23.489v54.083l-43.685-23.488Zm-45.227,23.489,43.684-23.489V299.43l-43.684,23.488Zm43.684,134.218-43.684-23.491V325.478l43.684,23.488Zm45.227-23.491-43.685,23.491V348.966l43.685-23.488Zm-44.457-31.909L-675.8,324.2l43.617-23.453,43.62,23.453Z" transform="translate(10351.177 198.802)" fill="#fff"/>
        <path id="Path_46-5" data-name="Path 46" d="M-631.406,243.614l-.773-.416-.77.416-45.228,24.319V380.464l45.228,24.318.77.416.773-.416,45.229-24.318V267.933Zm0,1.731,43.685,23.489v54.083l-43.685-23.488Zm-45.227,23.489,43.684-23.489V299.43l-43.684,23.488Zm43.684,134.218-43.684-23.491V325.478l43.684,23.488Zm45.227-23.491-43.685,23.491V348.966l43.685-23.488Zm-44.457-31.909L-675.8,324.2l43.617-23.453,43.62,23.453Z" transform="translate(11071.177 198.802)" fill="#fff"/>
        <path id="Path_38-5" data-name="Path 38" d="M-631.406,243.614l-.773-.416-.77.416-45.228,24.319V380.464l45.228,24.318.77.416.773-.416,45.229-24.318V267.933Zm0,1.731,43.685,23.489v54.083l-43.685-23.488Zm-45.227,23.489,43.684-23.489V299.43l-43.684,23.488Zm43.684,134.218-43.684-23.491V325.478l43.684,23.488Zm45.227-23.491-43.685,23.491V348.966l43.685-23.488Zm-44.457-31.909L-675.8,324.2l43.617-23.453,43.62,23.453Z" transform="translate(10711.177 198.802)" fill="#fff"/>
        <path id="Path_49-5" data-name="Path 49" d="M-631.406,243.614l-.773-.416-.77.416-45.228,24.319V380.464l45.228,24.318.77.416.773-.416,45.229-24.318V267.933Zm0,1.731,43.685,23.489v54.083l-43.685-23.488Zm-45.227,23.489,43.684-23.489V299.43l-43.684,23.488Zm43.684,134.218-43.684-23.491V325.478l43.684,23.488Zm45.227-23.491-43.685,23.491V348.966l43.685-23.488Zm-44.457-31.909L-675.8,324.2l43.617-23.453,43.62,23.453Z" transform="translate(11431.177 198.802)" fill="#fff"/>
      </g>
      <g id="Group_26" data-name="Group 26" transform="translate(-45 408)">
        <path id="Path_34-6" data-name="Path 34" d="M-631.406,243.614l-.773-.416-.77.416-45.228,24.319V380.464l45.228,24.318.77.416.773-.416,45.229-24.318V267.933Zm0,1.731,43.685,23.489v54.083l-43.685-23.488Zm-45.227,23.489,43.684-23.489V299.43l-43.684,23.488Zm43.684,134.218-43.684-23.491V325.478l43.684,23.488Zm45.227-23.491-43.685,23.491V348.966l43.685-23.488Zm-44.457-31.909L-675.8,324.2l43.617-23.453,43.62,23.453Z" transform="translate(10081.177 198.802)" fill="#fff"/>
        <path id="Path_53" data-name="Path 53" d="M-631.406,243.614l-.773-.416-.77.416-45.228,24.319V380.464l45.228,24.318.77.416.773-.416,45.229-24.318V267.933Zm0,1.731,43.685,23.489v54.083l-43.685-23.488Zm-45.227,23.489,43.684-23.489V299.43l-43.684,23.488Zm43.684,134.218-43.684-23.491V325.478l43.684,23.488Zm45.227-23.491-43.685,23.491V348.966l43.685-23.488Zm-44.457-31.909L-675.8,324.2l43.617-23.453,43.62,23.453Z" transform="translate(9991.177 198.802)" fill="#fff"/>
        <path id="Path_42-6" data-name="Path 42" d="M-631.406,243.614l-.773-.416-.77.416-45.228,24.319V380.464l45.228,24.318.77.416.773-.416,45.229-24.318V267.933Zm0,1.731,43.685,23.489v54.083l-43.685-23.488Zm-45.227,23.489,43.684-23.489V299.43l-43.684,23.488Zm43.684,134.218-43.684-23.491V325.478l43.684,23.488Zm45.227-23.491-43.685,23.491V348.966l43.685-23.488Zm-44.457-31.909L-675.8,324.2l43.617-23.453,43.62,23.453Z" transform="translate(10801.177 198.802)" fill="#fff"/>
        <path id="Path_41-6" data-name="Path 41" d="M-631.406,243.614l-.773-.416-.77.416-45.228,24.319V380.464l45.228,24.318.77.416.773-.416,45.229-24.318V267.933Zm0,1.731,43.685,23.489v54.083l-43.685-23.488Zm-45.227,23.489,43.684-23.489V299.43l-43.684,23.488Zm43.684,134.218-43.684-23.491V325.478l43.684,23.488Zm45.227-23.491-43.685,23.491V348.966l43.685-23.488Zm-44.457-31.909L-675.8,324.2l43.617-23.453,43.62,23.453Z" transform="translate(10441.177 198.802)" fill="#fff"/>
        <path id="Path_45-6" data-name="Path 45" d="M-631.406,243.614l-.773-.416-.77.416-45.228,24.319V380.464l45.228,24.318.77.416.773-.416,45.229-24.318V267.933Zm0,1.731,43.685,23.489v54.083l-43.685-23.488Zm-45.227,23.489,43.684-23.489V299.43l-43.684,23.488Zm43.684,134.218-43.684-23.491V325.478l43.684,23.488Zm45.227-23.491-43.685,23.491V348.966l43.685-23.488Zm-44.457-31.909L-675.8,324.2l43.617-23.453,43.62,23.453Z" transform="translate(11161.177 198.802)" fill="#fff"/>
        <path id="Path_36-6" data-name="Path 36" d="M-631.406,243.614l-.773-.416-.77.416-45.228,24.319V380.464l45.228,24.318.77.416.773-.416,45.229-24.318V267.933Zm0,1.731,43.685,23.489v54.083l-43.685-23.488Zm-45.227,23.489,43.684-23.489V299.43l-43.684,23.488Zm43.684,134.218-43.684-23.491V325.478l43.684,23.488Zm45.227-23.491-43.685,23.491V348.966l43.685-23.488Zm-44.457-31.909L-675.8,324.2l43.617-23.453,43.62,23.453Z" transform="translate(10261.177 198.802)" fill="#fff"/>
        <path id="Path_44-6" data-name="Path 44" d="M-631.406,243.614l-.773-.416-.77.416-45.228,24.319V380.464l45.228,24.318.77.416.773-.416,45.229-24.318V267.933Zm0,1.731,43.685,23.489v54.083l-43.685-23.488Zm-45.227,23.489,43.684-23.489V299.43l-43.684,23.488Zm43.684,134.218-43.684-23.491V325.478l43.684,23.488Zm45.227-23.491-43.685,23.491V348.966l43.685-23.488Zm-44.457-31.909L-675.8,324.2l43.617-23.453,43.62,23.453Z" transform="translate(10981.177 198.802)" fill="#fff"/>
        <path id="Path_39-6" data-name="Path 39" d="M-631.406,243.614l-.773-.416-.77.416-45.228,24.319V380.464l45.228,24.318.77.416.773-.416,45.229-24.318V267.933Zm0,1.731,43.685,23.489v54.083l-43.685-23.488Zm-45.227,23.489,43.684-23.489V299.43l-43.684,23.488Zm43.684,134.218-43.684-23.491V325.478l43.684,23.488Zm45.227-23.491-43.685,23.491V348.966l43.685-23.488Zm-44.457-31.909L-675.8,324.2l43.617-23.453,43.62,23.453Z" transform="translate(10621.177 198.802)" fill="#fff"/>
        <path id="Path_47-6" data-name="Path 47" d="M-631.406,243.614l-.773-.416-.77.416-45.228,24.319V380.464l45.228,24.318.77.416.773-.416,45.229-24.318V267.933Zm0,1.731,43.685,23.489v54.083l-43.685-23.488Zm-45.227,23.489,43.684-23.489V299.43l-43.684,23.488Zm43.684,134.218-43.684-23.491V325.478l43.684,23.488Zm45.227-23.491-43.685,23.491V348.966l43.685-23.488Zm-44.457-31.909L-675.8,324.2l43.617-23.453,43.62,23.453Z" transform="translate(11341.177 198.802)" fill="#fff"/>
        <path id="Path_35-6" data-name="Path 35" d="M-631.406,243.614l-.773-.416-.77.416-45.228,24.319V380.464l45.228,24.318.77.416.773-.416,45.229-24.318V267.933Zm0,1.731,43.685,23.489v54.083l-43.685-23.488Zm-45.227,23.489,43.684-23.489V299.43l-43.684,23.488Zm43.684,134.218-43.684-23.491V325.478l43.684,23.488Zm45.227-23.491-43.685,23.491V348.966l43.685-23.488Zm-44.457-31.909L-675.8,324.2l43.617-23.453,43.62,23.453Z" transform="translate(10171.177 198.802)" fill="#fff"/>
        <path id="Path_43-6" data-name="Path 43" d="M-631.406,243.614l-.773-.416-.77.416-45.228,24.319V380.464l45.228,24.318.77.416.773-.416,45.229-24.318V267.933Zm0,1.731,43.685,23.489v54.083l-43.685-23.488Zm-45.227,23.489,43.684-23.489V299.43l-43.684,23.488Zm43.684,134.218-43.684-23.491V325.478l43.684,23.488Zm45.227-23.491-43.685,23.491V348.966l43.685-23.488Zm-44.457-31.909L-675.8,324.2l43.617-23.453,43.62,23.453Z" transform="translate(10891.177 198.802)" fill="#fff"/>
        <path id="Path_40-6" data-name="Path 40" d="M-631.406,243.614l-.773-.416-.77.416-45.228,24.319V380.464l45.228,24.318.77.416.773-.416,45.229-24.318V267.933Zm0,1.731,43.685,23.489v54.083l-43.685-23.488Zm-45.227,23.489,43.684-23.489V299.43l-43.684,23.488Zm43.684,134.218-43.684-23.491V325.478l43.684,23.488Zm45.227-23.491-43.685,23.491V348.966l43.685-23.488Zm-44.457-31.909L-675.8,324.2l43.617-23.453,43.62,23.453Z" transform="translate(10531.177 198.802)" fill="#fff"/>
        <path id="Path_48-6" data-name="Path 48" d="M-631.406,243.614l-.773-.416-.77.416-45.228,24.319V380.464l45.228,24.318.77.416.773-.416,45.229-24.318V267.933Zm0,1.731,43.685,23.489v54.083l-43.685-23.488Zm-45.227,23.489,43.684-23.489V299.43l-43.684,23.488Zm43.684,134.218-43.684-23.491V325.478l43.684,23.488Zm45.227-23.491-43.685,23.491V348.966l43.685-23.488Zm-44.457-31.909L-675.8,324.2l43.617-23.453,43.62,23.453Z" transform="translate(11251.177 198.802)" fill="#fff"/>
        <path id="Path_37-6" data-name="Path 37" d="M-631.406,243.614l-.773-.416-.77.416-45.228,24.319V380.464l45.228,24.318.77.416.773-.416,45.229-24.318V267.933Zm0,1.731,43.685,23.489v54.083l-43.685-23.488Zm-45.227,23.489,43.684-23.489V299.43l-43.684,23.488Zm43.684,134.218-43.684-23.491V325.478l43.684,23.488Zm45.227-23.491-43.685,23.491V348.966l43.685-23.488Zm-44.457-31.909L-675.8,324.2l43.617-23.453,43.62,23.453Z" transform="translate(10351.177 198.802)" fill="#fff"/>
        <path id="Path_46-6" data-name="Path 46" d="M-631.406,243.614l-.773-.416-.77.416-45.228,24.319V380.464l45.228,24.318.77.416.773-.416,45.229-24.318V267.933Zm0,1.731,43.685,23.489v54.083l-43.685-23.488Zm-45.227,23.489,43.684-23.489V299.43l-43.684,23.488Zm43.684,134.218-43.684-23.491V325.478l43.684,23.488Zm45.227-23.491-43.685,23.491V348.966l43.685-23.488Zm-44.457-31.909L-675.8,324.2l43.617-23.453,43.62,23.453Z" transform="translate(11071.177 198.802)" fill="#fff"/>
        <path id="Path_38-6" data-name="Path 38" d="M-631.406,243.614l-.773-.416-.77.416-45.228,24.319V380.464l45.228,24.318.77.416.773-.416,45.229-24.318V267.933Zm0,1.731,43.685,23.489v54.083l-43.685-23.488Zm-45.227,23.489,43.684-23.489V299.43l-43.684,23.488Zm43.684,134.218-43.684-23.491V325.478l43.684,23.488Zm45.227-23.491-43.685,23.491V348.966l43.685-23.488Zm-44.457-31.909L-675.8,324.2l43.617-23.453,43.62,23.453Z" transform="translate(10711.177 198.802)" fill="#fff"/>
        <path id="Path_49-6" data-name="Path 49" d="M-631.406,243.614l-.773-.416-.77.416-45.228,24.319V380.464l45.228,24.318.77.416.773-.416,45.229-24.318V267.933Zm0,1.731,43.685,23.489v54.083l-43.685-23.488Zm-45.227,23.489,43.684-23.489V299.43l-43.684,23.488Zm43.684,134.218-43.684-23.491V325.478l43.684,23.488Zm45.227-23.491-43.685,23.491V348.966l43.685-23.488Zm-44.457-31.909L-675.8,324.2l43.617-23.453,43.62,23.453Z" transform="translate(11431.177 198.802)" fill="#fff"/>
      </g>
      <g id="Group_27" data-name="Group 27" transform="translate(-45 680)">
        <path id="Path_34-7" data-name="Path 34" d="M-631.406,243.614l-.773-.416-.77.416-45.228,24.319V380.464l45.228,24.318.77.416.773-.416,45.229-24.318V267.933Zm0,1.731,43.685,23.489v54.083l-43.685-23.488Zm-45.227,23.489,43.684-23.489V299.43l-43.684,23.488Zm43.684,134.218-43.684-23.491V325.478l43.684,23.488Zm45.227-23.491-43.685,23.491V348.966l43.685-23.488Zm-44.457-31.909L-675.8,324.2l43.617-23.453,43.62,23.453Z" transform="translate(10081.177 198.802)" fill="#fff"/>
        <path id="Path_53-2" data-name="Path 53" d="M-631.406,243.614l-.773-.416-.77.416-45.228,24.319V380.464l45.228,24.318.77.416.773-.416,45.229-24.318V267.933Zm0,1.731,43.685,23.489v54.083l-43.685-23.488Zm-45.227,23.489,43.684-23.489V299.43l-43.684,23.488Zm43.684,134.218-43.684-23.491V325.478l43.684,23.488Zm45.227-23.491-43.685,23.491V348.966l43.685-23.488Zm-44.457-31.909L-675.8,324.2l43.617-23.453,43.62,23.453Z" transform="translate(9991.177 198.802)" fill="#fff"/>
        <path id="Path_42-7" data-name="Path 42" d="M-631.406,243.614l-.773-.416-.77.416-45.228,24.319V380.464l45.228,24.318.77.416.773-.416,45.229-24.318V267.933Zm0,1.731,43.685,23.489v54.083l-43.685-23.488Zm-45.227,23.489,43.684-23.489V299.43l-43.684,23.488Zm43.684,134.218-43.684-23.491V325.478l43.684,23.488Zm45.227-23.491-43.685,23.491V348.966l43.685-23.488Zm-44.457-31.909L-675.8,324.2l43.617-23.453,43.62,23.453Z" transform="translate(10801.177 198.802)" fill="#fff"/>
        <path id="Path_41-7" data-name="Path 41" d="M-631.406,243.614l-.773-.416-.77.416-45.228,24.319V380.464l45.228,24.318.77.416.773-.416,45.229-24.318V267.933Zm0,1.731,43.685,23.489v54.083l-43.685-23.488Zm-45.227,23.489,43.684-23.489V299.43l-43.684,23.488Zm43.684,134.218-43.684-23.491V325.478l43.684,23.488Zm45.227-23.491-43.685,23.491V348.966l43.685-23.488Zm-44.457-31.909L-675.8,324.2l43.617-23.453,43.62,23.453Z" transform="translate(10441.177 198.802)" fill="#fff"/>
        <path id="Path_45-7" data-name="Path 45" d="M-631.406,243.614l-.773-.416-.77.416-45.228,24.319V380.464l45.228,24.318.77.416.773-.416,45.229-24.318V267.933Zm0,1.731,43.685,23.489v54.083l-43.685-23.488Zm-45.227,23.489,43.684-23.489V299.43l-43.684,23.488Zm43.684,134.218-43.684-23.491V325.478l43.684,23.488Zm45.227-23.491-43.685,23.491V348.966l43.685-23.488Zm-44.457-31.909L-675.8,324.2l43.617-23.453,43.62,23.453Z" transform="translate(11161.177 198.802)" fill="#fff"/>
        <path id="Path_36-7" data-name="Path 36" d="M-631.406,243.614l-.773-.416-.77.416-45.228,24.319V380.464l45.228,24.318.77.416.773-.416,45.229-24.318V267.933Zm0,1.731,43.685,23.489v54.083l-43.685-23.488Zm-45.227,23.489,43.684-23.489V299.43l-43.684,23.488Zm43.684,134.218-43.684-23.491V325.478l43.684,23.488Zm45.227-23.491-43.685,23.491V348.966l43.685-23.488Zm-44.457-31.909L-675.8,324.2l43.617-23.453,43.62,23.453Z" transform="translate(10261.177 198.802)" fill="#fff"/>
        <path id="Path_44-7" data-name="Path 44" d="M-631.406,243.614l-.773-.416-.77.416-45.228,24.319V380.464l45.228,24.318.77.416.773-.416,45.229-24.318V267.933Zm0,1.731,43.685,23.489v54.083l-43.685-23.488Zm-45.227,23.489,43.684-23.489V299.43l-43.684,23.488Zm43.684,134.218-43.684-23.491V325.478l43.684,23.488Zm45.227-23.491-43.685,23.491V348.966l43.685-23.488Zm-44.457-31.909L-675.8,324.2l43.617-23.453,43.62,23.453Z" transform="translate(10981.177 198.802)" fill="#fff"/>
        <path id="Path_39-7" data-name="Path 39" d="M-631.406,243.614l-.773-.416-.77.416-45.228,24.319V380.464l45.228,24.318.77.416.773-.416,45.229-24.318V267.933Zm0,1.731,43.685,23.489v54.083l-43.685-23.488Zm-45.227,23.489,43.684-23.489V299.43l-43.684,23.488Zm43.684,134.218-43.684-23.491V325.478l43.684,23.488Zm45.227-23.491-43.685,23.491V348.966l43.685-23.488Zm-44.457-31.909L-675.8,324.2l43.617-23.453,43.62,23.453Z" transform="translate(10621.177 198.802)" fill="#fff"/>
        <path id="Path_47-7" data-name="Path 47" d="M-631.406,243.614l-.773-.416-.77.416-45.228,24.319V380.464l45.228,24.318.77.416.773-.416,45.229-24.318V267.933Zm0,1.731,43.685,23.489v54.083l-43.685-23.488Zm-45.227,23.489,43.684-23.489V299.43l-43.684,23.488Zm43.684,134.218-43.684-23.491V325.478l43.684,23.488Zm45.227-23.491-43.685,23.491V348.966l43.685-23.488Zm-44.457-31.909L-675.8,324.2l43.617-23.453,43.62,23.453Z" transform="translate(11341.177 198.802)" fill="#fff"/>
        <path id="Path_35-7" data-name="Path 35" d="M-631.406,243.614l-.773-.416-.77.416-45.228,24.319V380.464l45.228,24.318.77.416.773-.416,45.229-24.318V267.933Zm0,1.731,43.685,23.489v54.083l-43.685-23.488Zm-45.227,23.489,43.684-23.489V299.43l-43.684,23.488Zm43.684,134.218-43.684-23.491V325.478l43.684,23.488Zm45.227-23.491-43.685,23.491V348.966l43.685-23.488Zm-44.457-31.909L-675.8,324.2l43.617-23.453,43.62,23.453Z" transform="translate(10171.177 198.802)" fill="#fff"/>
        <path id="Path_43-7" data-name="Path 43" d="M-631.406,243.614l-.773-.416-.77.416-45.228,24.319V380.464l45.228,24.318.77.416.773-.416,45.229-24.318V267.933Zm0,1.731,43.685,23.489v54.083l-43.685-23.488Zm-45.227,23.489,43.684-23.489V299.43l-43.684,23.488Zm43.684,134.218-43.684-23.491V325.478l43.684,23.488Zm45.227-23.491-43.685,23.491V348.966l43.685-23.488Zm-44.457-31.909L-675.8,324.2l43.617-23.453,43.62,23.453Z" transform="translate(10891.177 198.802)" fill="#fff"/>
        <path id="Path_40-7" data-name="Path 40" d="M-631.406,243.614l-.773-.416-.77.416-45.228,24.319V380.464l45.228,24.318.77.416.773-.416,45.229-24.318V267.933Zm0,1.731,43.685,23.489v54.083l-43.685-23.488Zm-45.227,23.489,43.684-23.489V299.43l-43.684,23.488Zm43.684,134.218-43.684-23.491V325.478l43.684,23.488Zm45.227-23.491-43.685,23.491V348.966l43.685-23.488Zm-44.457-31.909L-675.8,324.2l43.617-23.453,43.62,23.453Z" transform="translate(10531.177 198.802)" fill="#fff"/>
        <path id="Path_48-7" data-name="Path 48" d="M-631.406,243.614l-.773-.416-.77.416-45.228,24.319V380.464l45.228,24.318.77.416.773-.416,45.229-24.318V267.933Zm0,1.731,43.685,23.489v54.083l-43.685-23.488Zm-45.227,23.489,43.684-23.489V299.43l-43.684,23.488Zm43.684,134.218-43.684-23.491V325.478l43.684,23.488Zm45.227-23.491-43.685,23.491V348.966l43.685-23.488Zm-44.457-31.909L-675.8,324.2l43.617-23.453,43.62,23.453Z" transform="translate(11251.177 198.802)" fill="#fff"/>
        <path id="Path_37-7" data-name="Path 37" d="M-631.406,243.614l-.773-.416-.77.416-45.228,24.319V380.464l45.228,24.318.77.416.773-.416,45.229-24.318V267.933Zm0,1.731,43.685,23.489v54.083l-43.685-23.488Zm-45.227,23.489,43.684-23.489V299.43l-43.684,23.488Zm43.684,134.218-43.684-23.491V325.478l43.684,23.488Zm45.227-23.491-43.685,23.491V348.966l43.685-23.488Zm-44.457-31.909L-675.8,324.2l43.617-23.453,43.62,23.453Z" transform="translate(10351.177 198.802)" fill="#fff"/>
        <path id="Path_46-7" data-name="Path 46" d="M-631.406,243.614l-.773-.416-.77.416-45.228,24.319V380.464l45.228,24.318.77.416.773-.416,45.229-24.318V267.933Zm0,1.731,43.685,23.489v54.083l-43.685-23.488Zm-45.227,23.489,43.684-23.489V299.43l-43.684,23.488Zm43.684,134.218-43.684-23.491V325.478l43.684,23.488Zm45.227-23.491-43.685,23.491V348.966l43.685-23.488Zm-44.457-31.909L-675.8,324.2l43.617-23.453,43.62,23.453Z" transform="translate(11071.177 198.802)" fill="#fff"/>
        <path id="Path_38-7" data-name="Path 38" d="M-631.406,243.614l-.773-.416-.77.416-45.228,24.319V380.464l45.228,24.318.77.416.773-.416,45.229-24.318V267.933Zm0,1.731,43.685,23.489v54.083l-43.685-23.488Zm-45.227,23.489,43.684-23.489V299.43l-43.684,23.488Zm43.684,134.218-43.684-23.491V325.478l43.684,23.488Zm45.227-23.491-43.685,23.491V348.966l43.685-23.488Zm-44.457-31.909L-675.8,324.2l43.617-23.453,43.62,23.453Z" transform="translate(10711.177 198.802)" fill="#fff"/>
        <path id="Path_49-7" data-name="Path 49" d="M-631.406,243.614l-.773-.416-.77.416-45.228,24.319V380.464l45.228,24.318.77.416.773-.416,45.229-24.318V267.933Zm0,1.731,43.685,23.489v54.083l-43.685-23.488Zm-45.227,23.489,43.684-23.489V299.43l-43.684,23.488Zm43.684,134.218-43.684-23.491V325.478l43.684,23.488Zm45.227-23.491-43.685,23.491V348.966l43.685-23.488Zm-44.457-31.909L-675.8,324.2l43.617-23.453,43.62,23.453Z" transform="translate(11431.177 198.802)" fill="#fff"/>
      </g>
      <g id="Group_31" data-name="Group 31" transform="translate(-45 952)">
        <path id="Path_34-8" data-name="Path 34" d="M-631.406,243.614l-.773-.416-.77.416-45.228,24.319V380.464l45.228,24.318.77.416.773-.416,45.229-24.318V267.933Zm0,1.731,43.685,23.489v54.083l-43.685-23.488Zm-45.227,23.489,43.684-23.489V299.43l-43.684,23.488Zm43.684,134.218-43.684-23.491V325.478l43.684,23.488Zm45.227-23.491-43.685,23.491V348.966l43.685-23.488Zm-44.457-31.909L-675.8,324.2l43.617-23.453,43.62,23.453Z" transform="translate(10081.177 198.802)" fill="#fff"/>
        <path id="Path_53-3" data-name="Path 53" d="M-631.406,243.614l-.773-.416-.77.416-45.228,24.319V380.464l45.228,24.318.77.416.773-.416,45.229-24.318V267.933Zm0,1.731,43.685,23.489v54.083l-43.685-23.488Zm-45.227,23.489,43.684-23.489V299.43l-43.684,23.488Zm43.684,134.218-43.684-23.491V325.478l43.684,23.488Zm45.227-23.491-43.685,23.491V348.966l43.685-23.488Zm-44.457-31.909L-675.8,324.2l43.617-23.453,43.62,23.453Z" transform="translate(9991.177 198.802)" fill="#fff"/>
        <path id="Path_42-8" data-name="Path 42" d="M-631.406,243.614l-.773-.416-.77.416-45.228,24.319V380.464l45.228,24.318.77.416.773-.416,45.229-24.318V267.933Zm0,1.731,43.685,23.489v54.083l-43.685-23.488Zm-45.227,23.489,43.684-23.489V299.43l-43.684,23.488Zm43.684,134.218-43.684-23.491V325.478l43.684,23.488Zm45.227-23.491-43.685,23.491V348.966l43.685-23.488Zm-44.457-31.909L-675.8,324.2l43.617-23.453,43.62,23.453Z" transform="translate(10801.177 198.802)" fill="#fff"/>
        <path id="Path_41-8" data-name="Path 41" d="M-631.406,243.614l-.773-.416-.77.416-45.228,24.319V380.464l45.228,24.318.77.416.773-.416,45.229-24.318V267.933Zm0,1.731,43.685,23.489v54.083l-43.685-23.488Zm-45.227,23.489,43.684-23.489V299.43l-43.684,23.488Zm43.684,134.218-43.684-23.491V325.478l43.684,23.488Zm45.227-23.491-43.685,23.491V348.966l43.685-23.488Zm-44.457-31.909L-675.8,324.2l43.617-23.453,43.62,23.453Z" transform="translate(10441.177 198.802)" fill="#fff"/>
        <path id="Path_45-8" data-name="Path 45" d="M-631.406,243.614l-.773-.416-.77.416-45.228,24.319V380.464l45.228,24.318.77.416.773-.416,45.229-24.318V267.933Zm0,1.731,43.685,23.489v54.083l-43.685-23.488Zm-45.227,23.489,43.684-23.489V299.43l-43.684,23.488Zm43.684,134.218-43.684-23.491V325.478l43.684,23.488Zm45.227-23.491-43.685,23.491V348.966l43.685-23.488Zm-44.457-31.909L-675.8,324.2l43.617-23.453,43.62,23.453Z" transform="translate(11161.177 198.802)" fill="#fff"/>
        <path id="Path_36-8" data-name="Path 36" d="M-631.406,243.614l-.773-.416-.77.416-45.228,24.319V380.464l45.228,24.318.77.416.773-.416,45.229-24.318V267.933Zm0,1.731,43.685,23.489v54.083l-43.685-23.488Zm-45.227,23.489,43.684-23.489V299.43l-43.684,23.488Zm43.684,134.218-43.684-23.491V325.478l43.684,23.488Zm45.227-23.491-43.685,23.491V348.966l43.685-23.488Zm-44.457-31.909L-675.8,324.2l43.617-23.453,43.62,23.453Z" transform="translate(10261.177 198.802)" fill="#fff"/>
        <path id="Path_44-8" data-name="Path 44" d="M-631.406,243.614l-.773-.416-.77.416-45.228,24.319V380.464l45.228,24.318.77.416.773-.416,45.229-24.318V267.933Zm0,1.731,43.685,23.489v54.083l-43.685-23.488Zm-45.227,23.489,43.684-23.489V299.43l-43.684,23.488Zm43.684,134.218-43.684-23.491V325.478l43.684,23.488Zm45.227-23.491-43.685,23.491V348.966l43.685-23.488Zm-44.457-31.909L-675.8,324.2l43.617-23.453,43.62,23.453Z" transform="translate(10981.177 198.802)" fill="#fff"/>
        <path id="Path_39-8" data-name="Path 39" d="M-631.406,243.614l-.773-.416-.77.416-45.228,24.319V380.464l45.228,24.318.77.416.773-.416,45.229-24.318V267.933Zm0,1.731,43.685,23.489v54.083l-43.685-23.488Zm-45.227,23.489,43.684-23.489V299.43l-43.684,23.488Zm43.684,134.218-43.684-23.491V325.478l43.684,23.488Zm45.227-23.491-43.685,23.491V348.966l43.685-23.488Zm-44.457-31.909L-675.8,324.2l43.617-23.453,43.62,23.453Z" transform="translate(10621.177 198.802)" fill="#fff"/>
        <path id="Path_47-8" data-name="Path 47" d="M-631.406,243.614l-.773-.416-.77.416-45.228,24.319V380.464l45.228,24.318.77.416.773-.416,45.229-24.318V267.933Zm0,1.731,43.685,23.489v54.083l-43.685-23.488Zm-45.227,23.489,43.684-23.489V299.43l-43.684,23.488Zm43.684,134.218-43.684-23.491V325.478l43.684,23.488Zm45.227-23.491-43.685,23.491V348.966l43.685-23.488Zm-44.457-31.909L-675.8,324.2l43.617-23.453,43.62,23.453Z" transform="translate(11341.177 198.802)" fill="#fff"/>
        <path id="Path_35-8" data-name="Path 35" d="M-631.406,243.614l-.773-.416-.77.416-45.228,24.319V380.464l45.228,24.318.77.416.773-.416,45.229-24.318V267.933Zm0,1.731,43.685,23.489v54.083l-43.685-23.488Zm-45.227,23.489,43.684-23.489V299.43l-43.684,23.488Zm43.684,134.218-43.684-23.491V325.478l43.684,23.488Zm45.227-23.491-43.685,23.491V348.966l43.685-23.488Zm-44.457-31.909L-675.8,324.2l43.617-23.453,43.62,23.453Z" transform="translate(10171.177 198.802)" fill="#fff"/>
        <path id="Path_43-8" data-name="Path 43" d="M-631.406,243.614l-.773-.416-.77.416-45.228,24.319V380.464l45.228,24.318.77.416.773-.416,45.229-24.318V267.933Zm0,1.731,43.685,23.489v54.083l-43.685-23.488Zm-45.227,23.489,43.684-23.489V299.43l-43.684,23.488Zm43.684,134.218-43.684-23.491V325.478l43.684,23.488Zm45.227-23.491-43.685,23.491V348.966l43.685-23.488Zm-44.457-31.909L-675.8,324.2l43.617-23.453,43.62,23.453Z" transform="translate(10891.177 198.802)" fill="#fff"/>
        <path id="Path_40-8" data-name="Path 40" d="M-631.406,243.614l-.773-.416-.77.416-45.228,24.319V380.464l45.228,24.318.77.416.773-.416,45.229-24.318V267.933Zm0,1.731,43.685,23.489v54.083l-43.685-23.488Zm-45.227,23.489,43.684-23.489V299.43l-43.684,23.488Zm43.684,134.218-43.684-23.491V325.478l43.684,23.488Zm45.227-23.491-43.685,23.491V348.966l43.685-23.488Zm-44.457-31.909L-675.8,324.2l43.617-23.453,43.62,23.453Z" transform="translate(10531.177 198.802)" fill="#fff"/>
        <path id="Path_48-8" data-name="Path 48" d="M-631.406,243.614l-.773-.416-.77.416-45.228,24.319V380.464l45.228,24.318.77.416.773-.416,45.229-24.318V267.933Zm0,1.731,43.685,23.489v54.083l-43.685-23.488Zm-45.227,23.489,43.684-23.489V299.43l-43.684,23.488Zm43.684,134.218-43.684-23.491V325.478l43.684,23.488Zm45.227-23.491-43.685,23.491V348.966l43.685-23.488Zm-44.457-31.909L-675.8,324.2l43.617-23.453,43.62,23.453Z" transform="translate(11251.177 198.802)" fill="#fff"/>
        <path id="Path_37-8" data-name="Path 37" d="M-631.406,243.614l-.773-.416-.77.416-45.228,24.319V380.464l45.228,24.318.77.416.773-.416,45.229-24.318V267.933Zm0,1.731,43.685,23.489v54.083l-43.685-23.488Zm-45.227,23.489,43.684-23.489V299.43l-43.684,23.488Zm43.684,134.218-43.684-23.491V325.478l43.684,23.488Zm45.227-23.491-43.685,23.491V348.966l43.685-23.488Zm-44.457-31.909L-675.8,324.2l43.617-23.453,43.62,23.453Z" transform="translate(10351.177 198.802)" fill="#fff"/>
        <path id="Path_46-8" data-name="Path 46" d="M-631.406,243.614l-.773-.416-.77.416-45.228,24.319V380.464l45.228,24.318.77.416.773-.416,45.229-24.318V267.933Zm0,1.731,43.685,23.489v54.083l-43.685-23.488Zm-45.227,23.489,43.684-23.489V299.43l-43.684,23.488Zm43.684,134.218-43.684-23.491V325.478l43.684,23.488Zm45.227-23.491-43.685,23.491V348.966l43.685-23.488Zm-44.457-31.909L-675.8,324.2l43.617-23.453,43.62,23.453Z" transform="translate(11071.177 198.802)" fill="#fff"/>
        <path id="Path_38-8" data-name="Path 38" d="M-631.406,243.614l-.773-.416-.77.416-45.228,24.319V380.464l45.228,24.318.77.416.773-.416,45.229-24.318V267.933Zm0,1.731,43.685,23.489v54.083l-43.685-23.488Zm-45.227,23.489,43.684-23.489V299.43l-43.684,23.488Zm43.684,134.218-43.684-23.491V325.478l43.684,23.488Zm45.227-23.491-43.685,23.491V348.966l43.685-23.488Zm-44.457-31.909L-675.8,324.2l43.617-23.453,43.62,23.453Z" transform="translate(10711.177 198.802)" fill="#fff"/>
        <path id="Path_49-8" data-name="Path 49" d="M-631.406,243.614l-.773-.416-.77.416-45.228,24.319V380.464l45.228,24.318.77.416.773-.416,45.229-24.318V267.933Zm0,1.731,43.685,23.489v54.083l-43.685-23.488Zm-45.227,23.489,43.684-23.489V299.43l-43.684,23.488Zm43.684,134.218-43.684-23.491V325.478l43.684,23.488Zm45.227-23.491-43.685,23.491V348.966l43.685-23.488Zm-44.457-31.909L-675.8,324.2l43.617-23.453,43.62,23.453Z" transform="translate(11431.177 198.802)" fill="#fff"/>
      </g>
    </g>
  </g>
</svg>
