<svg xmlns="http://www.w3.org/2000/svg" width="408" height="200.861" viewBox="0 0 408 200.861">
  <g id="Group_1" data-name="Group 1" transform="translate(-311.459 -243.783)">
    <path id="Path_1" data-name="Path 1" d="M414.805,338.218h8.178v7.864a11.648,11.648,0,0,1-2.469,2.182,12.521,12.521,0,0,1-7.151,2.152,11.56,11.56,0,1,1,0-23.111,11.394,11.394,0,0,1,6.862,2.182,12.127,12.127,0,0,1,2.277,2.152l-2.246,2.245a7.651,7.651,0,0,0-1.7-1.669,8.547,8.547,0,0,0-5.195-1.7,8.345,8.345,0,0,0,0,16.69,8.8,8.8,0,0,0,4.553-1.188,6.563,6.563,0,0,0,1.539-1.219v-3.37h-4.651Z" transform="translate(77.724 72.231)" fill="#fff"/>
    <path id="Path_2" data-name="Path 2" d="M424.073,327.477h3.848l8.981,22.467h-3.689l-2.245-5.777h-9.94l-2.245,5.777h-3.689Zm5.612,13.481L426,331.651l-3.687,9.307Z" transform="translate(89.461 72.38)" fill="#fff"/>
    <path id="Path_3" data-name="Path 3" d="M430.75,344.636a5.68,5.68,0,0,0,1.347,1.283,7.376,7.376,0,0,0,4.265,1.285c2.918,0,4.489-1.572,4.489-3.37,0-4.975-11.865-1.927-11.865-10.271,0-3.371,2.92-6.259,7.7-6.259a9.881,9.881,0,0,1,5.26,1.443,7.427,7.427,0,0,1,1.794,1.444l-2.4,2.407a6.08,6.08,0,0,0-1.187-1.026,6.227,6.227,0,0,0-3.464-1.059c-2.726,0-4.17,1.412-4.17,3.049,0,4.975,11.867,1.926,11.867,10.271,0,3.53-3.046,6.579-8.018,6.579a10.915,10.915,0,0,1-6.061-1.669,8.367,8.367,0,0,1-1.956-1.7Z" transform="translate(100.902 72.231)" fill="#fff"/>
    <path id="Path_4" data-name="Path 4" d="M445.9,344.636a5.713,5.713,0,0,0,1.347,1.283,7.377,7.377,0,0,0,4.265,1.285c2.92,0,4.49-1.572,4.49-3.37,0-4.975-11.865-1.927-11.865-10.271,0-3.371,2.918-6.259,7.7-6.259a9.877,9.877,0,0,1,5.26,1.443,7.417,7.417,0,0,1,1.8,1.444l-2.405,2.407a6.014,6.014,0,0,0-1.187-1.026,6.223,6.223,0,0,0-3.464-1.059c-2.726,0-4.168,1.412-4.168,3.049,0,4.975,11.865,1.926,11.865,10.271,0,3.53-3.047,6.579-8.018,6.579a10.92,10.92,0,0,1-6.061-1.669,8.4,8.4,0,0,1-1.957-1.7Z" transform="translate(113.975 72.231)" fill="#fff"/>
    <path id="Path_5" data-name="Path 5" d="M460.38,330.847h-6.735v-3.37h17v3.37h-6.735v19.1H460.38Z" transform="translate(122.742 72.38)" fill="#fff"/>
    <path id="Path_6" data-name="Path 6" d="M476.439,327.3a11.559,11.559,0,1,1-11.865,11.554A11.577,11.577,0,0,1,476.439,327.3m0,19.9a8.345,8.345,0,1,0-8.338-8.345,8.283,8.283,0,0,0,8.338,8.345" transform="translate(132.176 72.231)" fill="#fff"/>
    <path id="Path_7" data-name="Path 7" d="M480.839,327.477h9.3a7.019,7.019,0,0,1,7.376,7.061,6.606,6.606,0,0,1-2.148,5.072,7.092,7.092,0,0,1-2.15,1.346l5.1,8.989h-4.01l-4.649-8.345h-5.292v8.345h-3.527Zm9.3,10.913a3.852,3.852,0,0,0,0-7.7h-5.773v7.7Z" transform="translate(146.217 72.38)" fill="#fff"/>
    <path id="Path_8" data-name="Path 8" d="M501,327.477h3.85l8.98,22.467h-3.689l-2.245-5.777h-9.94l-2.245,5.777h-3.689Zm5.614,13.481-3.689-9.307-3.687,9.307Z" transform="translate(155.873 72.38)" fill="#fff"/>
    <path id="Path_9" data-name="Path 9" d="M518.674,338.218h8.178v7.864a11.739,11.739,0,0,1-2.47,2.182,12.52,12.52,0,0,1-7.15,2.152,11.56,11.56,0,1,1,0-23.111,11.4,11.4,0,0,1,6.862,2.182,12.108,12.108,0,0,1,2.277,2.152l-2.246,2.245a7.692,7.692,0,0,0-1.7-1.669,8.551,8.551,0,0,0-5.195-1.7,8.345,8.345,0,0,0,0,16.69,8.783,8.783,0,0,0,4.552-1.188,6.528,6.528,0,0,0,1.541-1.219v-3.37h-4.65Z" transform="translate(167.388 72.231)" fill="#fff"/>
    <path id="Path_10" data-name="Path 10" d="M520.854,327.477h16.195v3.37H524.38v5.777h9.782v3.369H524.38v6.581h12.669v3.369H520.854Z" transform="translate(180.759 72.38)" fill="#fff"/>
    <path id="Path_11" data-name="Path 11" d="M415.76,323.591l-18.549,3.26a.66.66,0,0,0-.538.565,32.957,32.957,0,0,1-65.339,0,.658.658,0,0,0-.536-.565l-18.549-3.26a.667.667,0,0,0-.781.668,52.549,52.549,0,0,0,105.071,0,.665.665,0,0,0-.779-.668" transform="translate(0.008 69.01)" fill="#fff"/>
    <path id="Path_12" data-name="Path 12" d="M479.9,263.529H461.634a.66.66,0,0,0-.661.662v8.086a.661.661,0,0,1-1.058.529,52.687,52.687,0,0,0-45.974-8.99A51.491,51.491,0,0,0,377.2,300.875a52.737,52.737,0,0,0,16.51,53.505,54.769,54.769,0,0,0,35.238,12.782c11.984,0,22.087-4.037,30.967-10.827a.661.661,0,0,1,1.058.53v8.08a.662.662,0,0,0,.661.663H479.9a.662.662,0,0,0,.661-.663V264.191a.66.66,0,0,0-.661-.662m-20.4,61a31.966,31.966,0,0,1-21.541,21.559A33.116,33.116,0,0,1,396.521,304.6a31.985,31.985,0,0,1,21.531-21.552,33.117,33.117,0,0,1,41.454,41.481" transform="translate(55.25 15.73)" fill="#fff"/>
    <path id="Path_13" data-name="Path 13" d="M517.053,243.783H498.785a.662.662,0,0,0-.661.662V381.132a.662.662,0,0,0,.661.662h18.267a.662.662,0,0,0,.661-.662V244.445a.662.662,0,0,0-.661-.662" transform="translate(161.138 0)" fill="#fff"/>
    <path id="Path_14" data-name="Path 14" d="M538.846,278.412H520.58a.662.662,0,0,0-.663.662v72.109a.662.662,0,0,0,.663.662h18.265a.662.662,0,0,0,.662-.662V279.074a.662.662,0,0,0-.662-.662" transform="translate(179.951 29.948)" fill="#fff"/>
    <path id="Path_15" data-name="Path 15" d="M523.9,262.807H443.812a.664.664,0,0,0-.664.664v18.283a.662.662,0,0,0,.664.662h55.243a.663.663,0,0,1,.488,1.11l-56.222,61.567a.66.66,0,0,0-.173.448v18.684a.663.663,0,0,0,.664.666H523.9a.662.662,0,0,0,.661-.666V345.944a.662.662,0,0,0-.661-.662H468.662a.663.663,0,0,1-.49-1.11l56.222-61.567a.666.666,0,0,0,.173-.448V263.471a.663.663,0,0,0-.661-.664" transform="translate(113.68 16.452)" fill="#fff"/>
    <path id="Path_16" data-name="Path 16" d="M538.846,262.807H520.58a.664.664,0,0,0-.663.664v18.283a.662.662,0,0,0,.663.662h18.265a.662.662,0,0,0,.662-.662V263.471a.664.664,0,0,0-.662-.664" transform="translate(179.951 16.452)" fill="#fff"/>
    <path id="Path_17" data-name="Path 17" d="M415.9,261.973H397.637a.662.662,0,0,0-.662.662v11.006a52.7,52.7,0,0,0-47.023-9.831,51.477,51.477,0,0,0-36.734,36.984,52.6,52.6,0,1,0,91.69-19.215H415.9a.662.662,0,0,0,.661-.662V262.635a.662.662,0,0,0-.661-.662M395.51,324.525a31.972,31.972,0,0,1-21.534,21.561,33.117,33.117,0,0,1-41.455-41.5,31.98,31.98,0,0,1,21.547-21.544,33.117,33.117,0,0,1,41.442,41.479" transform="translate(0 15.731)" fill="#fff"/>
  </g>
</svg>
