<svg xmlns="http://www.w3.org/2000/svg" width="36" height="55.999" viewBox="0 0 36 55.999">
  <path id="Union_1" data-name="Union 1" d="M-2414,10977.766a.218.218,0,0,1,.27-.215l6.352,1.09a.224.224,0,0,1,.183.18,11.234,11.234,0,0,0,11.192,9.6,11.234,11.234,0,0,0,11.188-9.6.221.221,0,0,1,.186-.18l6.352-1.09a.215.215,0,0,1,.266.215A17.85,17.85,0,0,1-2396,10995,17.854,17.854,0,0,1-2414,10977.766Zm6.246-7.77a17.463,17.463,0,0,1-5.648-17.969,17.456,17.456,0,0,1,12.583-12.412,18.348,18.348,0,0,1,16.1,3.3v-3.691a.227.227,0,0,1,.228-.222h6.258a.226.226,0,0,1,.226.222v6.134a.224.224,0,0,1-.226.222h-3.768a17.322,17.322,0,0,1,3.995,11.065,17.457,17.457,0,0,1-6.251,13.352,18.108,18.108,0,0,1-11.75,4.289A18.108,18.108,0,0,1-2407.75,10970Zm8.343-23.923a10.85,10.85,0,0,0-7.38,7.224,11.226,11.226,0,0,0,14.2,13.92,10.836,10.836,0,0,0,7.374-7.226,11.146,11.146,0,0,0-10.788-14.412A12.107,12.107,0,0,0-2399.406,10946.073Z" transform="translate(2414 -10939)" fill="#fff" opacity="0.5"/>
</svg>
