<svg xmlns="http://www.w3.org/2000/svg" width="19" height="30" viewBox="0 0 19 30">
  <g id="Group_1" data-name="Group 1" transform="translate(-311.459 -248.849)">
    <path id="Path_11" data-name="Path 11" d="M330.321,323.582l-3.353.586a.119.119,0,0,0-.1.1,5.962,5.962,0,0,1-11.811,0,.119.119,0,0,0-.1-.1l-3.353-.586a.12.12,0,0,0-.141.12,9.5,9.5,0,0,0,18.994,0,.12.12,0,0,0-.141-.12" transform="translate(-0.006 -54.085)" fill="#fff"/>
    <path id="Path_17" data-name="Path 17" d="M330.339,261.973h-3.3a.119.119,0,0,0-.12.119v1.978a9.571,9.571,0,0,0-8.5-1.767,9.278,9.278,0,0,0-6.64,6.646,9.511,9.511,0,1,0,16.575-3.453h1.988a.119.119,0,0,0,.12-.119v-3.286a.119.119,0,0,0-.12-.119m-3.686,11.241a5.763,5.763,0,0,1-3.893,3.875,5.969,5.969,0,0,1-7.494-7.457,5.764,5.764,0,0,1,3.895-3.872,5.969,5.969,0,0,1,7.492,7.454" transform="translate(0 -13.124)" fill="#fff"/>
  </g>
</svg>