<svg xmlns="http://www.w3.org/2000/svg" width="96" height="47.261" viewBox="0 0 96 47.261">
  <g id="Group_48" data-name="Group 48" transform="translate(-311.459 -243.783)">
    <path id="Path_1" data-name="Path 1" d="M404.628,329.873h1.924v1.85a2.742,2.742,0,0,1-.581.513,2.946,2.946,0,0,1-1.683.506,2.72,2.72,0,1,1,0-5.438,2.681,2.681,0,0,1,1.615.513,2.854,2.854,0,0,1,.536.506l-.528.528a1.8,1.8,0,0,0-.4-.393,2.011,2.011,0,0,0-1.222-.4,1.964,1.964,0,0,0,0,3.927,2.07,2.07,0,0,0,1.071-.28,1.544,1.544,0,0,0,.362-.287v-.793h-1.094Z" transform="translate(-50.564 -46.874)" fill="#009167"/>
    <path id="Path_2" data-name="Path 2" d="M417.205,327.477h.905l2.113,5.286h-.868l-.528-1.359h-2.339l-.528,1.359h-.868Zm1.32,3.172-.868-2.19-.868,2.19Z" transform="translate(-58.199 -46.971)" fill="#009167"/>
    <path id="Path_3" data-name="Path 3" d="M428.911,331.383a1.337,1.337,0,0,0,.317.3,1.736,1.736,0,0,0,1,.3c.687,0,1.056-.37,1.056-.793,0-1.171-2.792-.453-2.792-2.417a1.606,1.606,0,0,1,1.811-1.473,2.325,2.325,0,0,1,1.238.34,1.747,1.747,0,0,1,.422.34l-.566.566a1.431,1.431,0,0,0-.279-.241,1.465,1.465,0,0,0-.815-.249c-.641,0-.981.332-.981.717,0,1.171,2.792.453,2.792,2.417a1.68,1.68,0,0,1-1.887,1.548,2.568,2.568,0,0,1-1.426-.393,1.968,1.968,0,0,1-.46-.4Z" transform="translate(-65.642 -46.874)" fill="#009167"/>
    <path id="Path_4" data-name="Path 4" d="M444.056,331.383a1.343,1.343,0,0,0,.317.3,1.736,1.736,0,0,0,1,.3c.687,0,1.057-.37,1.057-.793,0-1.171-2.792-.453-2.792-2.417a1.606,1.606,0,0,1,1.811-1.473,2.324,2.324,0,0,1,1.238.34,1.745,1.745,0,0,1,.423.34l-.566.566a1.416,1.416,0,0,0-.279-.241,1.464,1.464,0,0,0-.815-.249c-.641,0-.981.332-.981.717,0,1.171,2.792.453,2.792,2.417a1.68,1.68,0,0,1-1.886,1.548,2.569,2.569,0,0,1-1.426-.393,1.976,1.976,0,0,1-.46-.4Z" transform="translate(-74.148 -46.874)" fill="#009167"/>
    <path id="Path_5" data-name="Path 5" d="M455.23,328.27h-1.585v-.793h4v.793H456.06v4.494h-.83Z" transform="translate(-79.85 -46.971)" fill="#009167"/>
    <path id="Path_6" data-name="Path 6" d="M467.366,327.3a2.72,2.72,0,1,1-2.792,2.719,2.724,2.724,0,0,1,2.792-2.719m0,4.682a1.964,1.964,0,1,0-1.962-1.964,1.949,1.949,0,0,0,1.962,1.964" transform="translate(-85.988 -46.874)" fill="#009167"/>
    <path id="Path_7" data-name="Path 7" d="M480.839,327.477h2.188a1.652,1.652,0,0,1,1.736,1.661,1.554,1.554,0,0,1-.505,1.193,1.669,1.669,0,0,1-.506.317l1.2,2.115h-.943l-1.094-1.964h-1.245v1.964h-.83Zm2.188,2.568a.906.906,0,0,0,0-1.812h-1.358v1.813Z" transform="translate(-95.122 -46.971)" fill="#009167"/>
    <path id="Path_8" data-name="Path 8" d="M494.138,327.477h.906l2.113,5.286h-.868l-.528-1.359h-2.339l-.528,1.359h-.868Zm1.321,3.172-.868-2.19-.868,2.19Z" transform="translate(-101.404 -46.971)" fill="#009167"/>
    <path id="Path_9" data-name="Path 9" d="M508.5,329.873h1.924v1.85a2.764,2.764,0,0,1-.581.513,2.946,2.946,0,0,1-1.682.506,2.72,2.72,0,1,1,0-5.438,2.682,2.682,0,0,1,1.615.513,2.848,2.848,0,0,1,.536.506l-.528.528a1.808,1.808,0,0,0-.4-.393,2.012,2.012,0,0,0-1.222-.4,1.964,1.964,0,0,0,0,3.927,2.067,2.067,0,0,0,1.071-.28,1.538,1.538,0,0,0,.363-.287v-.793H508.5Z" transform="translate(-108.895 -46.874)" fill="#009167"/>
    <path id="Path_10" data-name="Path 10" d="M520.854,327.477h3.811v.793h-2.981v1.359h2.3v.793h-2.3v1.549h2.981v.793h-3.811Z" transform="translate(-117.594 -46.971)" fill="#009167"/>
    <path id="Path_11" data-name="Path 11" d="M336.007,323.583l-4.364.767a.155.155,0,0,0-.127.133,7.755,7.755,0,0,1-15.374,0,.155.155,0,0,0-.126-.133l-4.365-.767a.157.157,0,0,0-.184.157,12.364,12.364,0,0,0,24.723,0,.156.156,0,0,0-.183-.157" transform="translate(-0.005 -44.784)" fill="#009167"/>
    <path id="Path_12" data-name="Path 12" d="M400.035,262.339h-4.3a.155.155,0,0,0-.156.156v1.9a.156.156,0,0,1-.249.125,12.4,12.4,0,0,0-10.817-2.115,12.115,12.115,0,0,0-8.645,8.72,12.409,12.409,0,0,0,3.885,12.589,12.887,12.887,0,0,0,8.291,3.007,11.68,11.68,0,0,0,7.286-2.548.155.155,0,0,1,.249.125v1.9a.156.156,0,0,0,.156.156h4.3a.156.156,0,0,0,.156-.156V262.495a.155.155,0,0,0-.156-.156m-4.8,14.353a7.522,7.522,0,0,1-5.068,5.073A7.792,7.792,0,0,1,380.417,272a7.526,7.526,0,0,1,5.066-5.071,7.792,7.792,0,0,1,9.754,9.76" transform="translate(-35.943 -10.208)" fill="#009167"/>
    <path id="Path_13" data-name="Path 13" d="M502.578,243.783h-4.3a.156.156,0,0,0-.156.156V276.1a.156.156,0,0,0,.156.156h4.3a.156.156,0,0,0,.156-.156V243.939a.156.156,0,0,0-.156-.156" transform="translate(-104.829)" fill="#009167"/>
    <path id="Path_14" data-name="Path 14" d="M524.371,278.412h-4.3a.156.156,0,0,0-.156.156v16.967a.156.156,0,0,0,.156.156h4.3a.156.156,0,0,0,.156-.156V278.568a.156.156,0,0,0-.156-.156" transform="translate(-117.068 -19.435)" fill="#009167"/>
    <path id="Path_15" data-name="Path 15" d="M462.15,262.807H443.3a.156.156,0,0,0-.156.156v4.3a.156.156,0,0,0,.156.156h13a.156.156,0,0,1,.115.261l-13.229,14.486a.156.156,0,0,0-.041.105v4.4a.156.156,0,0,0,.156.157H462.15a.156.156,0,0,0,.156-.157v-4.3a.156.156,0,0,0-.156-.156h-13a.156.156,0,0,1-.115-.261l13.229-14.486a.156.156,0,0,0,.041-.105v-4.4a.156.156,0,0,0-.156-.156" transform="translate(-73.955 -10.677)" fill="#009167"/>
    <path id="Path_16" data-name="Path 16" d="M524.371,262.807h-4.3a.156.156,0,0,0-.156.156v4.3a.156.156,0,0,0,.156.156h4.3a.156.156,0,0,0,.156-.156v-4.3a.156.156,0,0,0-.156-.156" transform="translate(-117.068 -10.677)" fill="#009167"/>
    <path id="Path_17" data-name="Path 17" d="M336.034,261.973h-4.3a.156.156,0,0,0-.156.156v2.59a12.4,12.4,0,0,0-11.064-2.313,12.112,12.112,0,0,0-8.643,8.7,12.375,12.375,0,1,0,21.574-4.521h2.587a.156.156,0,0,0,.156-.156v-4.3a.156.156,0,0,0-.156-.156m-4.8,14.718a7.523,7.523,0,0,1-5.067,5.073A7.792,7.792,0,0,1,316.415,272a7.525,7.525,0,0,1,5.07-5.069,7.792,7.792,0,0,1,9.751,9.76" transform="translate(0 -10.209)" fill="#009167"/>
  </g>
</svg>
